G04 (created by PCBNEW-RS274X (2012-01-19 BZR 3256)-stable) date 2/6/2013 4:14:27 PM*
G01*
G70*
G90*
%MOIN*%
G04 Gerber Fmt 3.4, Leading zero omitted, Abs format*
%FSLAX34Y34*%
G04 APERTURE LIST*
%ADD10C,0.006000*%
%ADD11C,0.015000*%
%ADD12C,0.160000*%
%ADD13C,0.080000*%
%ADD14C,0.035000*%
%ADD15C,0.078700*%
%ADD16C,0.030000*%
%ADD17C,0.008000*%
%ADD18C,0.035000*%
G04 APERTURE END LIST*
G54D10*
G54D11*
X23811Y-09433D02*
X23815Y-09437D01*
X23811Y-29118D02*
X23811Y-09433D01*
X43496Y-29118D02*
X23811Y-29118D01*
X43496Y-09433D02*
X43496Y-29118D01*
X23811Y-09433D02*
X43496Y-09433D01*
G54D12*
X25039Y-16728D03*
X42224Y-16807D03*
X42098Y-19343D03*
X25091Y-18969D03*
G54D13*
X33480Y-20039D03*
G54D14*
X35618Y-17110D03*
X35161Y-14823D03*
X34921Y-24358D03*
X32319Y-18031D03*
X26839Y-19268D03*
X37982Y-12168D03*
X37400Y-17827D03*
X25008Y-21587D03*
X26206Y-23403D03*
X29661Y-15183D03*
X27862Y-18520D03*
X31453Y-13559D03*
X28992Y-18433D03*
X27130Y-20610D03*
X42724Y-20480D03*
X34461Y-23386D03*
X32555Y-19555D03*
X33343Y-18295D03*
X33740Y-16752D03*
X31850Y-12319D03*
X29188Y-15156D03*
X26705Y-23406D03*
X35988Y-13299D03*
X33031Y-21988D03*
X31512Y-22154D03*
X35224Y-13819D03*
X33752Y-17669D03*
X32988Y-11831D03*
X29720Y-23413D03*
X26188Y-15156D03*
X26688Y-15156D03*
X29206Y-23403D03*
X27188Y-15156D03*
X28709Y-23382D03*
X28206Y-23403D03*
X27688Y-15156D03*
X27701Y-23382D03*
X28188Y-15156D03*
X28688Y-15156D03*
X27206Y-23403D03*
X42539Y-22331D03*
X35362Y-21646D03*
X33067Y-12783D03*
X34807Y-19272D03*
X31520Y-22783D03*
X31469Y-14189D03*
X36772Y-13000D03*
X42902Y-24130D03*
G54D15*
X41389Y-20228D02*
X42098Y-19343D01*
X33669Y-20228D02*
X41389Y-20228D01*
X33484Y-20043D02*
X33669Y-20228D01*
G54D16*
X33484Y-20043D02*
X33480Y-20039D01*
G54D17*
X35161Y-14823D02*
X35618Y-15280D01*
X35618Y-15280D02*
X35618Y-17110D01*
X34921Y-24358D02*
X32025Y-21462D01*
X32025Y-21462D02*
X32025Y-18325D01*
X32025Y-18325D02*
X32319Y-18031D01*
G54D18*
X37982Y-16022D02*
X37982Y-12168D01*
X38911Y-16831D02*
X38791Y-16831D01*
X38791Y-16831D02*
X37982Y-16022D01*
X25008Y-21099D02*
X26839Y-19268D01*
X38791Y-16831D02*
X38437Y-16831D01*
X37441Y-17827D02*
X38437Y-16831D01*
G54D17*
X37441Y-17827D02*
X37400Y-17827D01*
G54D18*
X38911Y-16831D02*
X42224Y-16807D01*
X26839Y-19268D02*
X26839Y-18528D01*
X25008Y-21587D02*
X25008Y-21099D01*
X26839Y-18528D02*
X25039Y-16728D01*
G54D17*
X26197Y-22807D02*
X26197Y-23406D01*
X26206Y-23403D02*
X26203Y-23406D01*
X29661Y-15183D02*
X29688Y-15156D01*
X26197Y-23406D02*
X26197Y-23453D01*
X29661Y-19343D02*
X26197Y-22807D01*
X29661Y-15183D02*
X29661Y-19343D01*
X26203Y-23406D02*
X26197Y-23406D01*
X26813Y-13561D02*
X25669Y-14705D01*
X31453Y-13559D02*
X31419Y-13561D01*
X26813Y-13561D02*
X31419Y-13561D01*
X27862Y-17747D02*
X27862Y-18520D01*
X25669Y-14705D02*
X25669Y-15554D01*
X31453Y-13559D02*
X31419Y-13561D01*
X25669Y-15554D02*
X27862Y-17747D01*
G54D18*
X28992Y-18748D02*
X28992Y-18433D01*
X27130Y-20610D02*
X28992Y-18748D01*
G54D17*
X33984Y-20988D02*
X33984Y-22909D01*
G54D18*
X33196Y-20988D02*
X33984Y-20988D01*
G54D17*
X34454Y-23378D02*
X34461Y-23386D01*
X33984Y-22909D02*
X34461Y-23386D01*
G54D18*
X42725Y-20976D02*
X42724Y-20480D01*
X32555Y-19555D02*
X32555Y-20347D01*
G54D17*
X32555Y-19083D02*
X32555Y-19555D01*
G54D18*
X33984Y-20988D02*
X42725Y-20976D01*
X32555Y-20347D02*
X33196Y-20988D01*
G54D17*
X33343Y-18295D02*
X32555Y-19083D01*
X34455Y-14924D02*
X34455Y-16037D01*
X31850Y-12319D02*
X34455Y-14924D01*
X34455Y-16037D02*
X33740Y-16752D01*
X30012Y-14905D02*
X30012Y-19398D01*
X30012Y-19398D02*
X26705Y-22705D01*
X26705Y-22705D02*
X26705Y-23406D01*
X29509Y-14835D02*
X29942Y-14835D01*
X29509Y-14835D02*
X29188Y-15156D01*
X26705Y-23406D02*
X26705Y-23453D01*
X29942Y-14835D02*
X30012Y-14905D01*
X35988Y-19169D02*
X35465Y-19692D01*
X34668Y-19692D02*
X33791Y-18815D01*
X35465Y-19692D02*
X34668Y-19692D01*
X33212Y-17819D02*
X32228Y-18803D01*
X33791Y-18208D02*
X33402Y-17819D01*
X32228Y-18803D02*
X32228Y-21185D01*
X33402Y-17819D02*
X33212Y-17819D01*
X33791Y-18815D02*
X33791Y-18208D01*
X32228Y-21185D02*
X33031Y-21988D01*
X35988Y-13299D02*
X35988Y-19169D01*
X31449Y-12489D02*
X31449Y-11941D01*
X31514Y-22152D02*
X31512Y-22154D01*
X31449Y-11941D02*
X32079Y-11311D01*
X31512Y-22154D02*
X31514Y-22152D01*
X31512Y-22154D02*
X31843Y-21823D01*
X34641Y-11311D02*
X35224Y-11894D01*
X31843Y-21823D02*
X31843Y-12883D01*
X32079Y-11311D02*
X34641Y-11311D01*
X31843Y-12883D02*
X31449Y-12489D01*
X35224Y-11894D02*
X35224Y-13819D01*
X34637Y-14826D02*
X34637Y-16784D01*
X32551Y-12740D02*
X34637Y-14826D01*
X32551Y-12268D02*
X32551Y-12740D01*
X34637Y-16784D02*
X33752Y-17669D01*
X32988Y-11831D02*
X32551Y-12268D01*
X31151Y-14496D02*
X31151Y-20757D01*
X30398Y-13743D02*
X31151Y-14496D01*
X27601Y-13743D02*
X30398Y-13743D01*
X29720Y-22188D02*
X29720Y-23413D01*
X31151Y-20757D02*
X29720Y-22188D01*
X26188Y-15156D02*
X27601Y-13743D01*
X29193Y-22079D02*
X29197Y-23413D01*
X27919Y-13925D02*
X30322Y-13925D01*
X30969Y-14572D02*
X30965Y-20307D01*
X27919Y-13925D02*
X26688Y-15156D01*
X29197Y-23413D02*
X29197Y-23406D01*
X29197Y-23413D02*
X29197Y-23413D01*
X30322Y-13925D02*
X30969Y-14572D01*
X30965Y-20307D02*
X29193Y-22079D01*
X29203Y-23406D02*
X29206Y-23403D01*
X29203Y-23406D02*
X29197Y-23406D01*
X28701Y-22115D02*
X28709Y-23425D01*
X30246Y-14107D02*
X30787Y-14648D01*
X27188Y-15156D02*
X28237Y-14107D01*
X30787Y-14648D02*
X30779Y-20037D01*
X28709Y-23425D02*
X28709Y-23382D01*
X30779Y-20037D02*
X28701Y-22115D01*
X28709Y-23425D02*
X28709Y-23425D01*
X28237Y-14107D02*
X30246Y-14107D01*
X28555Y-14289D02*
X30170Y-14289D01*
X30605Y-14724D02*
X30597Y-19836D01*
X28205Y-23402D02*
X28206Y-23403D01*
X30597Y-19836D02*
X28197Y-22236D01*
X30170Y-14289D02*
X30605Y-14724D01*
X27688Y-15156D02*
X28555Y-14289D01*
X28197Y-22236D02*
X28205Y-23402D01*
X28188Y-15156D02*
X28873Y-14471D01*
X28873Y-14471D02*
X30094Y-14471D01*
X30094Y-14471D02*
X30423Y-14800D01*
X30423Y-14800D02*
X30415Y-19656D01*
X27693Y-22378D02*
X27701Y-23382D01*
X30415Y-19656D02*
X27693Y-22378D01*
X30233Y-19435D02*
X27201Y-22467D01*
X27201Y-22467D02*
X27209Y-23398D01*
X30018Y-14653D02*
X30241Y-14876D01*
X30241Y-14876D02*
X30233Y-19435D01*
X27209Y-23400D02*
X27209Y-23398D01*
X29191Y-14653D02*
X30018Y-14653D01*
X28688Y-15156D02*
X29191Y-14653D01*
X27206Y-23403D02*
X27209Y-23400D01*
X35362Y-21646D02*
X36047Y-22331D01*
X36047Y-22331D02*
X42539Y-22331D01*
X33067Y-12783D02*
X34819Y-14535D01*
X34819Y-19260D02*
X34807Y-19272D01*
X34819Y-14535D02*
X34819Y-19260D01*
X31469Y-14189D02*
X31333Y-14325D01*
X31333Y-14325D02*
X31333Y-21647D01*
X31333Y-21647D02*
X31051Y-21929D01*
X31051Y-21929D02*
X31051Y-22314D01*
X31051Y-22314D02*
X31520Y-22783D01*
X42902Y-22732D02*
X42902Y-24130D01*
X43150Y-22484D02*
X42902Y-22732D01*
X43150Y-18599D02*
X43150Y-22484D01*
X42701Y-18150D02*
X43150Y-18599D01*
X37170Y-18150D02*
X42701Y-18150D01*
X36925Y-17905D02*
X37170Y-18150D01*
X36925Y-13153D02*
X36925Y-17905D01*
X36772Y-13000D02*
X36925Y-13153D01*
M02*
