M48
INCH,TZ
T1C0.030
T2C0.050
T3C0.120
%
G90
G05
T1
X25008Y-21587
X26188Y-15156
X26206Y-23403
X26688Y-15156
X26705Y-23406
X26839Y-19268
X27130Y-20610
X27188Y-15156
X27206Y-23403
X27688Y-15156
X27701Y-23382
X27862Y-18520
X28188Y-15156
X28206Y-23403
X28688Y-15156
X28709Y-23382
X28992Y-18433
X29188Y-15156
X29206Y-23403
X29661Y-15183
X29720Y-23413
X31437Y-13543
X31512Y-22154
X31650Y-14311
X31681Y-13154
X32555Y-19555
X33043Y-22020
X33150Y-12858
X33343Y-18295
X34461Y-23386
X34512Y-21965
X34819Y-19299
X37400Y-17827
X37982Y-12168
X41692Y-22713
X42724Y-20480
T2
X33480Y-20039
T3
X25039Y-16728
X25091Y-18969
X42098Y-19343
X42224Y-16807
T0
M30
