G04 (created by PCBNEW-RS274X (2012-01-19 BZR 3256)-stable) date 2/6/2013 12:26:03 PM*
G01*
G70*
G90*
%MOIN*%
G04 Gerber Fmt 3.4, Leading zero omitted, Abs format*
%FSLAX34Y34*%
G04 APERTURE LIST*
%ADD10C,0.006000*%
%ADD11C,0.015000*%
%ADD12R,0.050000X0.040000*%
%ADD13R,0.040000X0.050000*%
%ADD14R,0.059400X0.047600*%
%ADD15R,0.200000X0.225000*%
%ADD16R,0.045000X0.207000*%
%ADD17R,0.120000X0.070000*%
%ADD18R,0.080000X0.100000*%
%ADD19R,0.100000X0.080000*%
%ADD20R,0.139000X0.058000*%
%ADD21C,0.180000*%
%ADD22R,0.070000X0.120000*%
%ADD23R,0.043600X0.059400*%
%ADD24R,0.059400X0.043600*%
%ADD25R,0.106900X0.044000*%
G04 APERTURE END LIST*
G54D10*
G54D11*
X23811Y-09433D02*
X23815Y-09437D01*
X23811Y-29118D02*
X23811Y-09433D01*
X43496Y-29118D02*
X23811Y-29118D01*
X43496Y-09433D02*
X43496Y-29118D01*
X23811Y-09433D02*
X43496Y-09433D01*
G54D12*
X34500Y-19304D03*
X34500Y-18554D03*
X33500Y-19304D03*
X34500Y-18929D03*
X33500Y-18554D03*
G54D13*
X27373Y-18992D03*
X28123Y-18992D03*
X27373Y-17992D03*
X27748Y-18992D03*
X28123Y-17992D03*
G54D14*
X30161Y-21469D03*
X31161Y-21094D03*
X31161Y-21844D03*
X34508Y-22378D03*
X33508Y-22753D03*
X33508Y-22003D03*
G54D15*
X24988Y-10606D03*
G54D16*
X26188Y-15156D03*
X26688Y-15156D03*
X27188Y-15156D03*
X27688Y-15156D03*
X28188Y-15156D03*
X28688Y-15156D03*
X29188Y-15156D03*
X29688Y-15156D03*
G54D15*
X30888Y-10606D03*
X36353Y-10614D03*
G54D16*
X37553Y-15164D03*
X38053Y-15164D03*
X38553Y-15164D03*
X39053Y-15164D03*
X39553Y-15164D03*
X40053Y-15164D03*
X40553Y-15164D03*
X41053Y-15164D03*
G54D15*
X42253Y-10614D03*
X30906Y-27953D03*
G54D16*
X29706Y-23403D03*
X29206Y-23403D03*
X28706Y-23403D03*
X28206Y-23403D03*
X27706Y-23403D03*
X27206Y-23403D03*
X26706Y-23403D03*
X26206Y-23403D03*
G54D15*
X25006Y-27953D03*
X42216Y-27898D03*
G54D16*
X41016Y-23348D03*
X40516Y-23348D03*
X40016Y-23348D03*
X39516Y-23348D03*
X39016Y-23348D03*
X38516Y-23348D03*
X38016Y-23348D03*
X37516Y-23348D03*
G54D15*
X36316Y-27898D03*
G54D17*
X29008Y-17974D03*
X29008Y-16774D03*
X32453Y-19982D03*
X32453Y-18782D03*
G54D18*
X34495Y-20898D03*
X35795Y-20898D03*
X31504Y-19921D03*
X30204Y-19921D03*
G54D19*
X35295Y-23367D03*
X35295Y-22067D03*
X26398Y-18630D03*
X26398Y-19930D03*
G54D18*
X36644Y-18866D03*
X37944Y-18866D03*
G54D20*
X32311Y-17772D03*
X32311Y-16772D03*
X32311Y-15772D03*
X34491Y-17772D03*
X34491Y-16772D03*
X34491Y-15772D03*
G54D21*
X25039Y-16728D03*
X42224Y-16807D03*
X42098Y-19343D03*
X25091Y-18969D03*
G54D18*
X32169Y-21244D03*
X33469Y-21244D03*
G54D17*
X26055Y-21962D03*
X26055Y-20762D03*
X29024Y-21978D03*
X29024Y-20778D03*
X31800Y-24000D03*
X31800Y-25200D03*
X33200Y-24000D03*
X33200Y-25200D03*
G54D22*
X39045Y-21756D03*
X40245Y-21756D03*
G54D17*
X41168Y-20487D03*
X41168Y-21687D03*
X36701Y-15912D03*
X36701Y-17112D03*
G54D22*
X39182Y-17760D03*
X37982Y-17760D03*
G54D18*
X28681Y-19717D03*
X27381Y-19717D03*
X34495Y-19898D03*
X35795Y-19898D03*
G54D23*
X41959Y-21802D03*
X42709Y-21802D03*
X42334Y-21802D03*
X42709Y-20970D03*
X41959Y-20970D03*
X42334Y-20970D03*
G54D24*
X27967Y-21627D03*
X27967Y-20877D03*
X27967Y-21252D03*
X27135Y-20877D03*
X27135Y-21627D03*
X27135Y-21252D03*
G54D25*
X34513Y-14831D03*
X34513Y-14331D03*
X34513Y-13831D03*
X34513Y-13331D03*
X34513Y-12831D03*
X34513Y-12331D03*
X34513Y-11831D03*
X32463Y-11831D03*
X32463Y-12331D03*
X32463Y-12831D03*
X32463Y-13331D03*
X32463Y-13831D03*
X32463Y-14331D03*
X32463Y-14831D03*
G54D19*
X35650Y-17709D03*
X35650Y-16409D03*
M02*
