M48
INCH,TZ
T1C0.030
T2C0.050
T3C0.120
%
G90
G05
T1
X25008Y-21587
X26188Y-15156
X26206Y-23403
X26688Y-15156
X26705Y-23406
X26839Y-19268
X27130Y-20610
X27188Y-15156
X27206Y-23403
X27688Y-15156
X27701Y-23382
X27862Y-18520
X28188Y-15156
X28206Y-23403
X28688Y-15156
X28709Y-23382
X28992Y-18433
X29188Y-15156
X29206Y-23403
X29661Y-15183
X29720Y-23413
X31453Y-13559
X31469Y-14189
X31512Y-22154
X31520Y-22783
X31850Y-12319
X32319Y-18031
X32555Y-19555
X32988Y-11831
X33031Y-21988
X33067Y-12783
X33343Y-18295
X33740Y-16752
X33752Y-17669
X34461Y-23386
X34807Y-19272
X34921Y-24358
X35161Y-14823
X35224Y-13819
X35362Y-21646
X35618Y-17110
X35988Y-13299
X36772Y-13000
X37400Y-17827
X37982Y-12168
X42539Y-22331
X42724Y-20480
X42902Y-24130
T2
X33480Y-20039
T3
X25039Y-16728
X25091Y-18969
X42098Y-19343
X42224Y-16807
T0
M30
