G04 (created by PCBNEW-RS274X (2012-01-19 BZR 3256)-stable) date 2/6/2013 4:14:27 PM*
G01*
G70*
G90*
%MOIN*%
G04 Gerber Fmt 3.4, Leading zero omitted, Abs format*
%FSLAX34Y34*%
G04 APERTURE LIST*
%ADD10C,0.006000*%
%ADD11C,0.015000*%
%ADD12C,0.005000*%
%ADD13C,0.002600*%
%ADD14C,0.003000*%
%ADD15C,0.012000*%
%ADD16C,0.010000*%
%ADD17C,0.003900*%
%ADD18C,0.003500*%
%ADD19R,0.050000X0.040000*%
%ADD20R,0.040000X0.050000*%
%ADD21R,0.059400X0.047600*%
%ADD22R,0.200000X0.225000*%
%ADD23R,0.045000X0.207000*%
%ADD24R,0.120000X0.070000*%
%ADD25R,0.080000X0.100000*%
%ADD26R,0.100000X0.080000*%
%ADD27R,0.139000X0.058000*%
%ADD28C,0.180000*%
%ADD29R,0.070000X0.120000*%
%ADD30R,0.043600X0.059400*%
%ADD31R,0.059400X0.043600*%
%ADD32R,0.106900X0.044000*%
G04 APERTURE END LIST*
G54D10*
G54D11*
X23811Y-09433D02*
X23815Y-09437D01*
X23811Y-29118D02*
X23811Y-09433D01*
X43496Y-29118D02*
X23811Y-29118D01*
X43496Y-09433D02*
X43496Y-29118D01*
X23811Y-09433D02*
X43496Y-09433D01*
G54D12*
X33650Y-18329D02*
X34350Y-18329D01*
X34350Y-18329D02*
X34350Y-19529D01*
X34350Y-19529D02*
X33650Y-19529D01*
X33650Y-19529D02*
X33650Y-18329D01*
X28348Y-18142D02*
X28348Y-18842D01*
X28348Y-18842D02*
X27148Y-18842D01*
X27148Y-18842D02*
X27148Y-18142D01*
X27148Y-18142D02*
X28348Y-18142D01*
X30961Y-21669D02*
X30761Y-21969D01*
X30961Y-20969D02*
X30961Y-21994D01*
X30961Y-21994D02*
X30361Y-21994D01*
X30361Y-21994D02*
X30361Y-20969D01*
X30361Y-20969D02*
X30961Y-20969D01*
X33708Y-22178D02*
X33908Y-21878D01*
X33708Y-22878D02*
X33708Y-21853D01*
X33708Y-21853D02*
X34308Y-21853D01*
X34308Y-21853D02*
X34308Y-22878D01*
X34308Y-22878D02*
X33708Y-22878D01*
G54D11*
X24988Y-15106D02*
X30988Y-15106D01*
X30988Y-15106D02*
X30988Y-08356D01*
X30988Y-08356D02*
X24988Y-08356D01*
X24988Y-08356D02*
X24988Y-15106D01*
X36353Y-15114D02*
X42353Y-15114D01*
X42353Y-15114D02*
X42353Y-08364D01*
X42353Y-08364D02*
X36353Y-08364D01*
X36353Y-08364D02*
X36353Y-15114D01*
X30906Y-23453D02*
X24906Y-23453D01*
X24906Y-23453D02*
X24906Y-30203D01*
X24906Y-30203D02*
X30906Y-30203D01*
X30906Y-30203D02*
X30906Y-23453D01*
X42216Y-23398D02*
X36216Y-23398D01*
X36216Y-23398D02*
X36216Y-30148D01*
X36216Y-30148D02*
X42216Y-30148D01*
X42216Y-30148D02*
X42216Y-23398D01*
G54D12*
X29678Y-18324D02*
X29676Y-18337D01*
X29672Y-18350D01*
X29666Y-18362D01*
X29657Y-18373D01*
X29647Y-18382D01*
X29635Y-18388D01*
X29622Y-18392D01*
X29608Y-18393D01*
X29595Y-18392D01*
X29582Y-18388D01*
X29570Y-18382D01*
X29560Y-18374D01*
X29551Y-18363D01*
X29544Y-18351D01*
X29540Y-18338D01*
X29539Y-18324D01*
X29540Y-18312D01*
X29543Y-18299D01*
X29550Y-18287D01*
X29558Y-18276D01*
X29569Y-18267D01*
X29580Y-18260D01*
X29593Y-18256D01*
X29607Y-18255D01*
X29620Y-18256D01*
X29633Y-18259D01*
X29645Y-18265D01*
X29656Y-18274D01*
X29665Y-18284D01*
X29671Y-18296D01*
X29676Y-18309D01*
X29677Y-18323D01*
X29678Y-18324D01*
X28458Y-17674D02*
X28458Y-18274D01*
X28458Y-18274D02*
X29558Y-18274D01*
X29558Y-18274D02*
X29558Y-17674D01*
X29558Y-17074D02*
X29558Y-16474D01*
X29558Y-16474D02*
X28458Y-16474D01*
X28458Y-16474D02*
X28458Y-17074D01*
X33123Y-20332D02*
X33121Y-20345D01*
X33117Y-20358D01*
X33111Y-20370D01*
X33102Y-20381D01*
X33092Y-20390D01*
X33080Y-20396D01*
X33067Y-20400D01*
X33053Y-20401D01*
X33040Y-20400D01*
X33027Y-20396D01*
X33015Y-20390D01*
X33005Y-20382D01*
X32996Y-20371D01*
X32989Y-20359D01*
X32985Y-20346D01*
X32984Y-20332D01*
X32985Y-20320D01*
X32988Y-20307D01*
X32995Y-20295D01*
X33003Y-20284D01*
X33014Y-20275D01*
X33025Y-20268D01*
X33038Y-20264D01*
X33052Y-20263D01*
X33065Y-20264D01*
X33078Y-20267D01*
X33090Y-20273D01*
X33101Y-20282D01*
X33110Y-20292D01*
X33116Y-20304D01*
X33121Y-20317D01*
X33122Y-20331D01*
X33123Y-20332D01*
X31903Y-19682D02*
X31903Y-20282D01*
X31903Y-20282D02*
X33003Y-20282D01*
X33003Y-20282D02*
X33003Y-19682D01*
X33003Y-19082D02*
X33003Y-18482D01*
X33003Y-18482D02*
X31903Y-18482D01*
X31903Y-18482D02*
X31903Y-19082D01*
X34145Y-20448D02*
X34145Y-21348D01*
X34145Y-21348D02*
X34795Y-21348D01*
X35495Y-20448D02*
X36145Y-20448D01*
X36145Y-20448D02*
X36145Y-21348D01*
X36145Y-21348D02*
X35495Y-21348D01*
X34795Y-20448D02*
X34145Y-20448D01*
X31854Y-20371D02*
X31854Y-19471D01*
X31854Y-19471D02*
X31204Y-19471D01*
X30504Y-20371D02*
X29854Y-20371D01*
X29854Y-20371D02*
X29854Y-19471D01*
X29854Y-19471D02*
X30504Y-19471D01*
X31204Y-20371D02*
X31854Y-20371D01*
X34845Y-23717D02*
X35745Y-23717D01*
X35745Y-23717D02*
X35745Y-23067D01*
X34845Y-22367D02*
X34845Y-21717D01*
X34845Y-21717D02*
X35745Y-21717D01*
X35745Y-21717D02*
X35745Y-22367D01*
X34845Y-23067D02*
X34845Y-23717D01*
X26848Y-18280D02*
X25948Y-18280D01*
X25948Y-18280D02*
X25948Y-18930D01*
X26848Y-19630D02*
X26848Y-20280D01*
X26848Y-20280D02*
X25948Y-20280D01*
X25948Y-20280D02*
X25948Y-19630D01*
X26848Y-18930D02*
X26848Y-18280D01*
X36294Y-18416D02*
X36294Y-19316D01*
X36294Y-19316D02*
X36944Y-19316D01*
X37644Y-18416D02*
X38294Y-18416D01*
X38294Y-18416D02*
X38294Y-19316D01*
X38294Y-19316D02*
X37644Y-19316D01*
X36944Y-18416D02*
X36294Y-18416D01*
G54D11*
X25939Y-16728D02*
X25921Y-16902D01*
X25871Y-17070D01*
X25788Y-17226D01*
X25677Y-17362D01*
X25542Y-17474D01*
X25387Y-17557D01*
X25219Y-17609D01*
X25045Y-17627D01*
X24871Y-17612D01*
X24702Y-17562D01*
X24547Y-17481D01*
X24410Y-17371D01*
X24297Y-17236D01*
X24212Y-17082D01*
X24159Y-16915D01*
X24140Y-16740D01*
X24154Y-16566D01*
X24203Y-16397D01*
X24283Y-16241D01*
X24392Y-16103D01*
X24526Y-15989D01*
X24679Y-15904D01*
X24846Y-15849D01*
X25021Y-15829D01*
X25195Y-15842D01*
X25364Y-15889D01*
X25521Y-15969D01*
X25659Y-16077D01*
X25774Y-16210D01*
X25861Y-16362D01*
X25916Y-16529D01*
X25938Y-16703D01*
X25939Y-16728D01*
X43124Y-16807D02*
X43106Y-16981D01*
X43056Y-17149D01*
X42973Y-17305D01*
X42862Y-17441D01*
X42727Y-17553D01*
X42572Y-17636D01*
X42404Y-17688D01*
X42230Y-17706D01*
X42056Y-17691D01*
X41887Y-17641D01*
X41732Y-17560D01*
X41595Y-17450D01*
X41482Y-17315D01*
X41397Y-17161D01*
X41344Y-16994D01*
X41325Y-16819D01*
X41339Y-16645D01*
X41388Y-16476D01*
X41468Y-16320D01*
X41577Y-16182D01*
X41711Y-16068D01*
X41864Y-15983D01*
X42031Y-15928D01*
X42206Y-15908D01*
X42380Y-15921D01*
X42549Y-15968D01*
X42706Y-16048D01*
X42844Y-16156D01*
X42959Y-16289D01*
X43046Y-16441D01*
X43101Y-16608D01*
X43123Y-16782D01*
X43124Y-16807D01*
X42998Y-19343D02*
X42980Y-19517D01*
X42930Y-19685D01*
X42847Y-19841D01*
X42736Y-19977D01*
X42601Y-20089D01*
X42446Y-20172D01*
X42278Y-20224D01*
X42104Y-20242D01*
X41930Y-20227D01*
X41761Y-20177D01*
X41606Y-20096D01*
X41469Y-19986D01*
X41356Y-19851D01*
X41271Y-19697D01*
X41218Y-19530D01*
X41199Y-19355D01*
X41213Y-19181D01*
X41262Y-19012D01*
X41342Y-18856D01*
X41451Y-18718D01*
X41585Y-18604D01*
X41738Y-18519D01*
X41905Y-18464D01*
X42080Y-18444D01*
X42254Y-18457D01*
X42423Y-18504D01*
X42580Y-18584D01*
X42718Y-18692D01*
X42833Y-18825D01*
X42920Y-18977D01*
X42975Y-19144D01*
X42997Y-19318D01*
X42998Y-19343D01*
X25991Y-18969D02*
X25973Y-19143D01*
X25923Y-19311D01*
X25840Y-19467D01*
X25729Y-19603D01*
X25594Y-19715D01*
X25439Y-19798D01*
X25271Y-19850D01*
X25097Y-19868D01*
X24923Y-19853D01*
X24754Y-19803D01*
X24599Y-19722D01*
X24462Y-19612D01*
X24349Y-19477D01*
X24264Y-19323D01*
X24211Y-19156D01*
X24192Y-18981D01*
X24206Y-18807D01*
X24255Y-18638D01*
X24335Y-18482D01*
X24444Y-18344D01*
X24578Y-18230D01*
X24731Y-18145D01*
X24898Y-18090D01*
X25073Y-18070D01*
X25247Y-18083D01*
X25416Y-18130D01*
X25573Y-18210D01*
X25711Y-18318D01*
X25826Y-18451D01*
X25913Y-18603D01*
X25968Y-18770D01*
X25990Y-18944D01*
X25991Y-18969D01*
G54D12*
X31819Y-20794D02*
X31819Y-21694D01*
X31819Y-21694D02*
X32469Y-21694D01*
X33169Y-20794D02*
X33819Y-20794D01*
X33819Y-20794D02*
X33819Y-21694D01*
X33819Y-21694D02*
X33169Y-21694D01*
X32469Y-20794D02*
X31819Y-20794D01*
X26725Y-22312D02*
X26723Y-22325D01*
X26719Y-22338D01*
X26713Y-22350D01*
X26704Y-22361D01*
X26694Y-22370D01*
X26682Y-22376D01*
X26669Y-22380D01*
X26655Y-22381D01*
X26642Y-22380D01*
X26629Y-22376D01*
X26617Y-22370D01*
X26607Y-22362D01*
X26598Y-22351D01*
X26591Y-22339D01*
X26587Y-22326D01*
X26586Y-22312D01*
X26587Y-22300D01*
X26590Y-22287D01*
X26597Y-22275D01*
X26605Y-22264D01*
X26616Y-22255D01*
X26627Y-22248D01*
X26640Y-22244D01*
X26654Y-22243D01*
X26667Y-22244D01*
X26680Y-22247D01*
X26692Y-22253D01*
X26703Y-22262D01*
X26712Y-22272D01*
X26718Y-22284D01*
X26723Y-22297D01*
X26724Y-22311D01*
X26725Y-22312D01*
X25505Y-21662D02*
X25505Y-22262D01*
X25505Y-22262D02*
X26605Y-22262D01*
X26605Y-22262D02*
X26605Y-21662D01*
X26605Y-21062D02*
X26605Y-20462D01*
X26605Y-20462D02*
X25505Y-20462D01*
X25505Y-20462D02*
X25505Y-21062D01*
X29694Y-22328D02*
X29692Y-22341D01*
X29688Y-22354D01*
X29682Y-22366D01*
X29673Y-22377D01*
X29663Y-22386D01*
X29651Y-22392D01*
X29638Y-22396D01*
X29624Y-22397D01*
X29611Y-22396D01*
X29598Y-22392D01*
X29586Y-22386D01*
X29576Y-22378D01*
X29567Y-22367D01*
X29560Y-22355D01*
X29556Y-22342D01*
X29555Y-22328D01*
X29556Y-22316D01*
X29559Y-22303D01*
X29566Y-22291D01*
X29574Y-22280D01*
X29585Y-22271D01*
X29596Y-22264D01*
X29609Y-22260D01*
X29623Y-22259D01*
X29636Y-22260D01*
X29649Y-22263D01*
X29661Y-22269D01*
X29672Y-22278D01*
X29681Y-22288D01*
X29687Y-22300D01*
X29692Y-22313D01*
X29693Y-22327D01*
X29694Y-22328D01*
X28474Y-21678D02*
X28474Y-22278D01*
X28474Y-22278D02*
X29574Y-22278D01*
X29574Y-22278D02*
X29574Y-21678D01*
X29574Y-21078D02*
X29574Y-20478D01*
X29574Y-20478D02*
X28474Y-20478D01*
X28474Y-20478D02*
X28474Y-21078D01*
X31270Y-23650D02*
X31268Y-23663D01*
X31264Y-23676D01*
X31258Y-23688D01*
X31249Y-23699D01*
X31239Y-23708D01*
X31227Y-23714D01*
X31214Y-23718D01*
X31200Y-23719D01*
X31187Y-23718D01*
X31174Y-23714D01*
X31162Y-23708D01*
X31152Y-23700D01*
X31143Y-23689D01*
X31136Y-23677D01*
X31132Y-23664D01*
X31131Y-23650D01*
X31132Y-23638D01*
X31135Y-23625D01*
X31142Y-23613D01*
X31150Y-23602D01*
X31161Y-23593D01*
X31172Y-23586D01*
X31185Y-23582D01*
X31199Y-23581D01*
X31212Y-23582D01*
X31225Y-23585D01*
X31237Y-23591D01*
X31248Y-23600D01*
X31257Y-23610D01*
X31263Y-23622D01*
X31268Y-23635D01*
X31269Y-23649D01*
X31270Y-23650D01*
X32350Y-24300D02*
X32350Y-23700D01*
X32350Y-23700D02*
X31250Y-23700D01*
X31250Y-23700D02*
X31250Y-24300D01*
X31250Y-24900D02*
X31250Y-25500D01*
X31250Y-25500D02*
X32350Y-25500D01*
X32350Y-25500D02*
X32350Y-24900D01*
X32525Y-23641D02*
X32523Y-23654D01*
X32519Y-23667D01*
X32513Y-23679D01*
X32504Y-23690D01*
X32494Y-23699D01*
X32482Y-23705D01*
X32469Y-23709D01*
X32455Y-23710D01*
X32442Y-23709D01*
X32429Y-23705D01*
X32417Y-23699D01*
X32407Y-23691D01*
X32398Y-23680D01*
X32391Y-23668D01*
X32387Y-23655D01*
X32386Y-23641D01*
X32387Y-23629D01*
X32390Y-23616D01*
X32397Y-23604D01*
X32405Y-23593D01*
X32416Y-23584D01*
X32427Y-23577D01*
X32440Y-23573D01*
X32454Y-23572D01*
X32467Y-23573D01*
X32480Y-23576D01*
X32492Y-23582D01*
X32503Y-23591D01*
X32512Y-23601D01*
X32518Y-23613D01*
X32523Y-23626D01*
X32524Y-23640D01*
X32525Y-23641D01*
X33605Y-24291D02*
X33605Y-23691D01*
X33605Y-23691D02*
X32505Y-23691D01*
X32505Y-23691D02*
X32505Y-24291D01*
X32505Y-24891D02*
X32505Y-25491D01*
X32505Y-25491D02*
X33605Y-25491D01*
X33605Y-25491D02*
X33605Y-24891D01*
X38765Y-22356D02*
X38763Y-22369D01*
X38759Y-22382D01*
X38753Y-22394D01*
X38744Y-22405D01*
X38734Y-22414D01*
X38722Y-22420D01*
X38709Y-22424D01*
X38695Y-22425D01*
X38682Y-22424D01*
X38669Y-22420D01*
X38657Y-22414D01*
X38647Y-22406D01*
X38638Y-22395D01*
X38631Y-22383D01*
X38627Y-22370D01*
X38626Y-22356D01*
X38627Y-22344D01*
X38630Y-22331D01*
X38637Y-22319D01*
X38645Y-22308D01*
X38656Y-22299D01*
X38667Y-22292D01*
X38680Y-22288D01*
X38694Y-22287D01*
X38707Y-22288D01*
X38720Y-22291D01*
X38732Y-22297D01*
X38743Y-22306D01*
X38752Y-22316D01*
X38758Y-22328D01*
X38763Y-22341D01*
X38764Y-22355D01*
X38765Y-22356D01*
X39345Y-21206D02*
X38745Y-21206D01*
X38745Y-21206D02*
X38745Y-22306D01*
X38745Y-22306D02*
X39345Y-22306D01*
X39945Y-22306D02*
X40545Y-22306D01*
X40545Y-22306D02*
X40545Y-21206D01*
X40545Y-21206D02*
X39945Y-21206D01*
X40638Y-20137D02*
X40636Y-20150D01*
X40632Y-20163D01*
X40626Y-20175D01*
X40617Y-20186D01*
X40607Y-20195D01*
X40595Y-20201D01*
X40582Y-20205D01*
X40568Y-20206D01*
X40555Y-20205D01*
X40542Y-20201D01*
X40530Y-20195D01*
X40520Y-20187D01*
X40511Y-20176D01*
X40504Y-20164D01*
X40500Y-20151D01*
X40499Y-20137D01*
X40500Y-20125D01*
X40503Y-20112D01*
X40510Y-20100D01*
X40518Y-20089D01*
X40529Y-20080D01*
X40540Y-20073D01*
X40553Y-20069D01*
X40567Y-20068D01*
X40580Y-20069D01*
X40593Y-20072D01*
X40605Y-20078D01*
X40616Y-20087D01*
X40625Y-20097D01*
X40631Y-20109D01*
X40636Y-20122D01*
X40637Y-20136D01*
X40638Y-20137D01*
X41718Y-20787D02*
X41718Y-20187D01*
X41718Y-20187D02*
X40618Y-20187D01*
X40618Y-20187D02*
X40618Y-20787D01*
X40618Y-21387D02*
X40618Y-21987D01*
X40618Y-21987D02*
X41718Y-21987D01*
X41718Y-21987D02*
X41718Y-21387D01*
X36171Y-15562D02*
X36169Y-15575D01*
X36165Y-15588D01*
X36159Y-15600D01*
X36150Y-15611D01*
X36140Y-15620D01*
X36128Y-15626D01*
X36115Y-15630D01*
X36101Y-15631D01*
X36088Y-15630D01*
X36075Y-15626D01*
X36063Y-15620D01*
X36053Y-15612D01*
X36044Y-15601D01*
X36037Y-15589D01*
X36033Y-15576D01*
X36032Y-15562D01*
X36033Y-15550D01*
X36036Y-15537D01*
X36043Y-15525D01*
X36051Y-15514D01*
X36062Y-15505D01*
X36073Y-15498D01*
X36086Y-15494D01*
X36100Y-15493D01*
X36113Y-15494D01*
X36126Y-15497D01*
X36138Y-15503D01*
X36149Y-15512D01*
X36158Y-15522D01*
X36164Y-15534D01*
X36169Y-15547D01*
X36170Y-15561D01*
X36171Y-15562D01*
X37251Y-16212D02*
X37251Y-15612D01*
X37251Y-15612D02*
X36151Y-15612D01*
X36151Y-15612D02*
X36151Y-16212D01*
X36151Y-16812D02*
X36151Y-17412D01*
X36151Y-17412D02*
X37251Y-17412D01*
X37251Y-17412D02*
X37251Y-16812D01*
X39602Y-17160D02*
X39600Y-17173D01*
X39596Y-17186D01*
X39590Y-17198D01*
X39581Y-17209D01*
X39571Y-17218D01*
X39559Y-17224D01*
X39546Y-17228D01*
X39532Y-17229D01*
X39519Y-17228D01*
X39506Y-17224D01*
X39494Y-17218D01*
X39484Y-17210D01*
X39475Y-17199D01*
X39468Y-17187D01*
X39464Y-17174D01*
X39463Y-17160D01*
X39464Y-17148D01*
X39467Y-17135D01*
X39474Y-17123D01*
X39482Y-17112D01*
X39493Y-17103D01*
X39504Y-17096D01*
X39517Y-17092D01*
X39531Y-17091D01*
X39544Y-17092D01*
X39557Y-17095D01*
X39569Y-17101D01*
X39580Y-17110D01*
X39589Y-17120D01*
X39595Y-17132D01*
X39600Y-17145D01*
X39601Y-17159D01*
X39602Y-17160D01*
X38882Y-18310D02*
X39482Y-18310D01*
X39482Y-18310D02*
X39482Y-17210D01*
X39482Y-17210D02*
X38882Y-17210D01*
X38282Y-17210D02*
X37682Y-17210D01*
X37682Y-17210D02*
X37682Y-18310D01*
X37682Y-18310D02*
X38282Y-18310D01*
X29031Y-20167D02*
X29031Y-19267D01*
X29031Y-19267D02*
X28381Y-19267D01*
X27681Y-20167D02*
X27031Y-20167D01*
X27031Y-20167D02*
X27031Y-19267D01*
X27031Y-19267D02*
X27681Y-19267D01*
X28381Y-20167D02*
X29031Y-20167D01*
X34145Y-19448D02*
X34145Y-20348D01*
X34145Y-20348D02*
X34795Y-20348D01*
X35495Y-19448D02*
X36145Y-19448D01*
X36145Y-19448D02*
X36145Y-20348D01*
X36145Y-20348D02*
X35495Y-20348D01*
X34795Y-19448D02*
X34145Y-19448D01*
X41999Y-21661D02*
X41744Y-21406D01*
X41939Y-21661D02*
X41744Y-21466D01*
X42334Y-21111D02*
X42334Y-20851D01*
X42709Y-21111D02*
X42709Y-20851D01*
X41959Y-21111D02*
X41959Y-20851D01*
X42334Y-21661D02*
X42334Y-21921D01*
X42709Y-21661D02*
X42709Y-21921D01*
X41959Y-21661D02*
X41959Y-21921D01*
X41744Y-21111D02*
X42924Y-21111D01*
X42924Y-21111D02*
X42924Y-21661D01*
X42924Y-21661D02*
X41744Y-21661D01*
X41744Y-21661D02*
X41744Y-21111D01*
X27826Y-21587D02*
X27571Y-21842D01*
X27826Y-21647D02*
X27631Y-21842D01*
X27276Y-21252D02*
X27016Y-21252D01*
X27276Y-20877D02*
X27016Y-20877D01*
X27276Y-21627D02*
X27016Y-21627D01*
X27826Y-21252D02*
X28086Y-21252D01*
X27826Y-20877D02*
X28086Y-20877D01*
X27826Y-21627D02*
X28086Y-21627D01*
X27276Y-21842D02*
X27276Y-20662D01*
X27276Y-20662D02*
X27826Y-20662D01*
X27826Y-20662D02*
X27826Y-21842D01*
X27826Y-21842D02*
X27276Y-21842D01*
G54D13*
X32763Y-14901D02*
X32763Y-14760D01*
X32763Y-14760D02*
X32363Y-14760D01*
X32363Y-14901D02*
X32363Y-14760D01*
X32763Y-14901D02*
X32363Y-14901D01*
X32763Y-14401D02*
X32763Y-14261D01*
X32763Y-14261D02*
X32363Y-14261D01*
X32363Y-14401D02*
X32363Y-14261D01*
X32763Y-14401D02*
X32363Y-14401D01*
X32763Y-13901D02*
X32763Y-13760D01*
X32763Y-13760D02*
X32363Y-13760D01*
X32363Y-13901D02*
X32363Y-13760D01*
X32763Y-13901D02*
X32363Y-13901D01*
X32763Y-13401D02*
X32763Y-13261D01*
X32763Y-13261D02*
X32363Y-13261D01*
X32363Y-13401D02*
X32363Y-13261D01*
X32763Y-13401D02*
X32363Y-13401D01*
X32763Y-12902D02*
X32763Y-12761D01*
X32763Y-12761D02*
X32363Y-12761D01*
X32363Y-12902D02*
X32363Y-12761D01*
X32763Y-12902D02*
X32363Y-12902D01*
X32763Y-12401D02*
X32763Y-12261D01*
X32763Y-12261D02*
X32363Y-12261D01*
X32363Y-12401D02*
X32363Y-12261D01*
X32763Y-12401D02*
X32363Y-12401D01*
X32763Y-11902D02*
X32763Y-11761D01*
X32763Y-11761D02*
X32363Y-11761D01*
X32363Y-11902D02*
X32363Y-11761D01*
X32763Y-11902D02*
X32363Y-11902D01*
X34613Y-11902D02*
X34613Y-11761D01*
X34613Y-11761D02*
X34213Y-11761D01*
X34213Y-11902D02*
X34213Y-11761D01*
X34613Y-11902D02*
X34213Y-11902D01*
X34613Y-12401D02*
X34613Y-12261D01*
X34613Y-12261D02*
X34213Y-12261D01*
X34213Y-12401D02*
X34213Y-12261D01*
X34613Y-12401D02*
X34213Y-12401D01*
X34613Y-12902D02*
X34613Y-12761D01*
X34613Y-12761D02*
X34213Y-12761D01*
X34213Y-12902D02*
X34213Y-12761D01*
X34613Y-12902D02*
X34213Y-12902D01*
X34613Y-13401D02*
X34613Y-13261D01*
X34613Y-13261D02*
X34213Y-13261D01*
X34213Y-13401D02*
X34213Y-13261D01*
X34613Y-13401D02*
X34213Y-13401D01*
X34613Y-13901D02*
X34613Y-13760D01*
X34613Y-13760D02*
X34213Y-13760D01*
X34213Y-13901D02*
X34213Y-13760D01*
X34613Y-13901D02*
X34213Y-13901D01*
X34613Y-14401D02*
X34613Y-14261D01*
X34613Y-14261D02*
X34213Y-14261D01*
X34213Y-14401D02*
X34213Y-14261D01*
X34613Y-14401D02*
X34213Y-14401D01*
X34613Y-14901D02*
X34613Y-14760D01*
X34613Y-14760D02*
X34213Y-14760D01*
X34213Y-14901D02*
X34213Y-14760D01*
X34613Y-14901D02*
X34213Y-14901D01*
G54D10*
X34193Y-15010D02*
X34193Y-11652D01*
X34193Y-11652D02*
X32783Y-11652D01*
X32783Y-11652D02*
X32783Y-15010D01*
X32783Y-15010D02*
X34193Y-15010D01*
G54D14*
X33941Y-14711D02*
X33938Y-14739D01*
X33929Y-14767D01*
X33916Y-14792D01*
X33898Y-14815D01*
X33875Y-14833D01*
X33850Y-14847D01*
X33822Y-14855D01*
X33794Y-14858D01*
X33766Y-14856D01*
X33738Y-14848D01*
X33712Y-14834D01*
X33690Y-14816D01*
X33671Y-14794D01*
X33657Y-14769D01*
X33649Y-14741D01*
X33646Y-14713D01*
X33648Y-14685D01*
X33656Y-14657D01*
X33669Y-14631D01*
X33687Y-14609D01*
X33709Y-14590D01*
X33734Y-14576D01*
X33762Y-14567D01*
X33790Y-14564D01*
X33818Y-14566D01*
X33846Y-14574D01*
X33872Y-14587D01*
X33895Y-14604D01*
X33913Y-14626D01*
X33928Y-14651D01*
X33937Y-14679D01*
X33940Y-14707D01*
X33941Y-14711D01*
G54D12*
X35200Y-18059D02*
X36100Y-18059D01*
X36100Y-18059D02*
X36100Y-17409D01*
X35200Y-16709D02*
X35200Y-16059D01*
X35200Y-16059D02*
X36100Y-16059D01*
X36100Y-16059D02*
X36100Y-16709D01*
X35200Y-17409D02*
X35200Y-18059D01*
X35953Y-24741D02*
X35953Y-23841D01*
X35953Y-23841D02*
X35303Y-23841D01*
X34603Y-24741D02*
X33953Y-24741D01*
X33953Y-24741D02*
X33953Y-23841D01*
X33953Y-23841D02*
X34603Y-23841D01*
X35303Y-24741D02*
X35953Y-24741D01*
X30492Y-22180D02*
X30492Y-23080D01*
X30492Y-23080D02*
X31142Y-23080D01*
X31842Y-22180D02*
X32492Y-22180D01*
X32492Y-22180D02*
X32492Y-23080D01*
X32492Y-23080D02*
X31842Y-23080D01*
X31142Y-22180D02*
X30492Y-22180D01*
X33803Y-26749D02*
X33803Y-25849D01*
X33803Y-25849D02*
X33153Y-25849D01*
X32453Y-26749D02*
X31803Y-26749D01*
X31803Y-26749D02*
X31803Y-25849D01*
X31803Y-25849D02*
X32453Y-25849D01*
X33153Y-26749D02*
X33803Y-26749D01*
X43332Y-23000D02*
X42432Y-23000D01*
X42432Y-23000D02*
X42432Y-23650D01*
X43332Y-24350D02*
X43332Y-25000D01*
X43332Y-25000D02*
X42432Y-25000D01*
X42432Y-25000D02*
X42432Y-24350D01*
X43332Y-23650D02*
X43332Y-23000D01*
X33953Y-24841D02*
X33953Y-25741D01*
X33953Y-25741D02*
X34603Y-25741D01*
X35303Y-24841D02*
X35953Y-24841D01*
X35953Y-24841D02*
X35953Y-25741D01*
X35953Y-25741D02*
X35303Y-25741D01*
X34603Y-24841D02*
X33953Y-24841D01*
X36000Y-26777D02*
X36000Y-25877D01*
X36000Y-25877D02*
X35350Y-25877D01*
X34650Y-26777D02*
X34000Y-26777D01*
X34000Y-26777D02*
X34000Y-25877D01*
X34000Y-25877D02*
X34650Y-25877D01*
X35350Y-26777D02*
X36000Y-26777D01*
X33830Y-18780D02*
X33830Y-18983D01*
X33841Y-19006D01*
X33853Y-19018D01*
X33877Y-19030D01*
X33925Y-19030D01*
X33949Y-19018D01*
X33960Y-19006D01*
X33972Y-18983D01*
X33972Y-18780D01*
X34199Y-18864D02*
X34199Y-19030D01*
X34139Y-18768D02*
X34080Y-18947D01*
X34234Y-18947D01*
X27219Y-18382D02*
X27219Y-18585D01*
X27230Y-18608D01*
X27242Y-18620D01*
X27266Y-18632D01*
X27314Y-18632D01*
X27338Y-18620D01*
X27349Y-18608D01*
X27361Y-18585D01*
X27361Y-18382D01*
X27469Y-18406D02*
X27481Y-18394D01*
X27504Y-18382D01*
X27564Y-18382D01*
X27588Y-18394D01*
X27600Y-18406D01*
X27611Y-18430D01*
X27611Y-18454D01*
X27600Y-18489D01*
X27457Y-18632D01*
X27611Y-18632D01*
G54D14*
X30609Y-21563D02*
X30581Y-21549D01*
X30552Y-21520D01*
X30509Y-21477D01*
X30481Y-21463D01*
X30452Y-21463D01*
X30467Y-21534D02*
X30438Y-21520D01*
X30409Y-21492D01*
X30395Y-21434D01*
X30395Y-21334D01*
X30409Y-21277D01*
X30438Y-21249D01*
X30467Y-21234D01*
X30524Y-21234D01*
X30552Y-21249D01*
X30581Y-21277D01*
X30595Y-21334D01*
X30595Y-21434D01*
X30581Y-21492D01*
X30552Y-21520D01*
X30524Y-21534D01*
X30467Y-21534D01*
X30709Y-21263D02*
X30723Y-21249D01*
X30752Y-21234D01*
X30823Y-21234D01*
X30852Y-21249D01*
X30866Y-21263D01*
X30881Y-21292D01*
X30881Y-21320D01*
X30866Y-21363D01*
X30695Y-21534D01*
X30881Y-21534D01*
X33959Y-22552D02*
X33931Y-22538D01*
X33902Y-22509D01*
X33859Y-22466D01*
X33831Y-22452D01*
X33802Y-22452D01*
X33817Y-22523D02*
X33788Y-22509D01*
X33759Y-22481D01*
X33745Y-22423D01*
X33745Y-22323D01*
X33759Y-22266D01*
X33788Y-22238D01*
X33817Y-22223D01*
X33874Y-22223D01*
X33902Y-22238D01*
X33931Y-22266D01*
X33945Y-22323D01*
X33945Y-22423D01*
X33931Y-22481D01*
X33902Y-22509D01*
X33874Y-22523D01*
X33817Y-22523D01*
X34202Y-22323D02*
X34202Y-22523D01*
X34131Y-22209D02*
X34059Y-22423D01*
X34245Y-22423D01*
G54D15*
X26849Y-11984D02*
X27049Y-11984D01*
X27135Y-12298D02*
X26849Y-12298D01*
X26849Y-11698D01*
X27135Y-11698D01*
X27392Y-12298D02*
X27392Y-11698D01*
X27678Y-12298D02*
X27678Y-11698D01*
X28021Y-12298D01*
X28021Y-11698D01*
X28278Y-11755D02*
X28307Y-11726D01*
X28364Y-11698D01*
X28507Y-11698D01*
X28564Y-11726D01*
X28593Y-11755D01*
X28621Y-11812D01*
X28621Y-11869D01*
X28593Y-11955D01*
X28250Y-12298D01*
X28621Y-12298D01*
X38615Y-12579D02*
X38815Y-12579D01*
X38901Y-12893D02*
X38615Y-12893D01*
X38615Y-12293D01*
X38901Y-12293D01*
X39272Y-12293D02*
X39386Y-12293D01*
X39444Y-12321D01*
X39501Y-12379D01*
X39529Y-12493D01*
X39529Y-12693D01*
X39501Y-12807D01*
X39444Y-12864D01*
X39386Y-12893D01*
X39272Y-12893D01*
X39215Y-12864D01*
X39158Y-12807D01*
X39129Y-12693D01*
X39129Y-12493D01*
X39158Y-12379D01*
X39215Y-12321D01*
X39272Y-12293D01*
X39787Y-12293D02*
X39787Y-12779D01*
X39815Y-12836D01*
X39844Y-12864D01*
X39901Y-12893D01*
X40015Y-12893D01*
X40073Y-12864D01*
X40101Y-12836D01*
X40130Y-12779D01*
X40130Y-12293D01*
X40330Y-12293D02*
X40673Y-12293D01*
X40502Y-12893D02*
X40502Y-12293D01*
X41187Y-12893D02*
X40844Y-12893D01*
X41016Y-12893D02*
X41016Y-12293D01*
X40959Y-12379D01*
X40901Y-12436D01*
X40844Y-12464D01*
X26509Y-26134D02*
X26709Y-26134D01*
X26795Y-26448D02*
X26509Y-26448D01*
X26509Y-25848D01*
X26795Y-25848D01*
X27166Y-25848D02*
X27280Y-25848D01*
X27338Y-25876D01*
X27395Y-25934D01*
X27423Y-26048D01*
X27423Y-26248D01*
X27395Y-26362D01*
X27338Y-26419D01*
X27280Y-26448D01*
X27166Y-26448D01*
X27109Y-26419D01*
X27052Y-26362D01*
X27023Y-26248D01*
X27023Y-26048D01*
X27052Y-25934D01*
X27109Y-25876D01*
X27166Y-25848D01*
X27681Y-25848D02*
X27681Y-26334D01*
X27709Y-26391D01*
X27738Y-26419D01*
X27795Y-26448D01*
X27909Y-26448D01*
X27967Y-26419D01*
X27995Y-26391D01*
X28024Y-26334D01*
X28024Y-25848D01*
X28224Y-25848D02*
X28567Y-25848D01*
X28396Y-26448D02*
X28396Y-25848D01*
X28738Y-25905D02*
X28767Y-25876D01*
X28824Y-25848D01*
X28967Y-25848D01*
X29024Y-25876D01*
X29053Y-25905D01*
X29081Y-25962D01*
X29081Y-26019D01*
X29053Y-26105D01*
X28710Y-26448D01*
X29081Y-26448D01*
X38220Y-26583D02*
X38420Y-26583D01*
X38506Y-26897D02*
X38220Y-26897D01*
X38220Y-26297D01*
X38506Y-26297D01*
X38763Y-26897D02*
X38763Y-26297D01*
X39049Y-26897D02*
X39049Y-26297D01*
X39392Y-26897D01*
X39392Y-26297D01*
X39992Y-26897D02*
X39649Y-26897D01*
X39821Y-26897D02*
X39821Y-26297D01*
X39764Y-26383D01*
X39706Y-26440D01*
X39649Y-26468D01*
G54D12*
X28962Y-17523D02*
X28862Y-17381D01*
X28790Y-17523D02*
X28790Y-17223D01*
X28905Y-17223D01*
X28933Y-17238D01*
X28948Y-17252D01*
X28962Y-17281D01*
X28962Y-17323D01*
X28948Y-17352D01*
X28933Y-17366D01*
X28905Y-17381D01*
X28790Y-17381D01*
X29062Y-17223D02*
X29248Y-17223D01*
X29148Y-17338D01*
X29190Y-17338D01*
X29219Y-17352D01*
X29233Y-17366D01*
X29248Y-17395D01*
X29248Y-17466D01*
X29233Y-17495D01*
X29219Y-17509D01*
X29190Y-17523D01*
X29105Y-17523D01*
X29076Y-17509D01*
X29062Y-17495D01*
X32203Y-19503D02*
X32103Y-19361D01*
X32031Y-19503D02*
X32031Y-19203D01*
X32146Y-19203D01*
X32174Y-19218D01*
X32189Y-19232D01*
X32203Y-19261D01*
X32203Y-19303D01*
X32189Y-19332D01*
X32174Y-19346D01*
X32146Y-19361D01*
X32031Y-19361D01*
X32303Y-19203D02*
X32503Y-19203D01*
X32374Y-19503D01*
X35095Y-21019D02*
X34995Y-20877D01*
X34923Y-21019D02*
X34923Y-20719D01*
X35038Y-20719D01*
X35066Y-20734D01*
X35081Y-20748D01*
X35095Y-20777D01*
X35095Y-20819D01*
X35081Y-20848D01*
X35066Y-20862D01*
X35038Y-20877D01*
X34923Y-20877D01*
X35352Y-20719D02*
X35295Y-20719D01*
X35266Y-20734D01*
X35252Y-20748D01*
X35223Y-20791D01*
X35209Y-20848D01*
X35209Y-20962D01*
X35223Y-20991D01*
X35238Y-21005D01*
X35266Y-21019D01*
X35323Y-21019D01*
X35352Y-21005D01*
X35366Y-20991D01*
X35381Y-20962D01*
X35381Y-20891D01*
X35366Y-20862D01*
X35352Y-20848D01*
X35323Y-20834D01*
X35266Y-20834D01*
X35238Y-20848D01*
X35223Y-20862D01*
X35209Y-20891D01*
X30804Y-20042D02*
X30704Y-19900D01*
X30632Y-20042D02*
X30632Y-19742D01*
X30747Y-19742D01*
X30775Y-19757D01*
X30790Y-19771D01*
X30804Y-19800D01*
X30804Y-19842D01*
X30790Y-19871D01*
X30775Y-19885D01*
X30747Y-19900D01*
X30632Y-19900D01*
X30918Y-19771D02*
X30932Y-19757D01*
X30961Y-19742D01*
X31032Y-19742D01*
X31061Y-19757D01*
X31075Y-19771D01*
X31090Y-19800D01*
X31090Y-19828D01*
X31075Y-19871D01*
X30904Y-20042D01*
X31090Y-20042D01*
X35416Y-22767D02*
X35274Y-22867D01*
X35416Y-22939D02*
X35116Y-22939D01*
X35116Y-22824D01*
X35131Y-22796D01*
X35145Y-22781D01*
X35174Y-22767D01*
X35216Y-22767D01*
X35245Y-22781D01*
X35259Y-22796D01*
X35274Y-22824D01*
X35274Y-22939D01*
X35116Y-22496D02*
X35116Y-22639D01*
X35259Y-22653D01*
X35245Y-22639D01*
X35231Y-22610D01*
X35231Y-22539D01*
X35245Y-22510D01*
X35259Y-22496D01*
X35288Y-22481D01*
X35359Y-22481D01*
X35388Y-22496D01*
X35402Y-22510D01*
X35416Y-22539D01*
X35416Y-22610D01*
X35402Y-22639D01*
X35388Y-22653D01*
X26519Y-19330D02*
X26377Y-19430D01*
X26519Y-19502D02*
X26219Y-19502D01*
X26219Y-19387D01*
X26234Y-19359D01*
X26248Y-19344D01*
X26277Y-19330D01*
X26319Y-19330D01*
X26348Y-19344D01*
X26362Y-19359D01*
X26377Y-19387D01*
X26377Y-19502D01*
X26319Y-19073D02*
X26519Y-19073D01*
X26205Y-19144D02*
X26419Y-19216D01*
X26419Y-19030D01*
X37244Y-18987D02*
X37144Y-18845D01*
X37072Y-18987D02*
X37072Y-18687D01*
X37187Y-18687D01*
X37215Y-18702D01*
X37230Y-18716D01*
X37244Y-18745D01*
X37244Y-18787D01*
X37230Y-18816D01*
X37215Y-18830D01*
X37187Y-18845D01*
X37072Y-18845D01*
X37530Y-18987D02*
X37358Y-18987D01*
X37444Y-18987D02*
X37444Y-18687D01*
X37415Y-18730D01*
X37387Y-18759D01*
X37358Y-18773D01*
G54D16*
X24434Y-15756D02*
X24034Y-15756D01*
X24034Y-15603D01*
X24053Y-15565D01*
X24072Y-15546D01*
X24110Y-15527D01*
X24167Y-15527D01*
X24205Y-15546D01*
X24224Y-15565D01*
X24243Y-15603D01*
X24243Y-15756D01*
X24034Y-15280D02*
X24034Y-15203D01*
X24053Y-15165D01*
X24091Y-15127D01*
X24167Y-15108D01*
X24301Y-15108D01*
X24377Y-15127D01*
X24415Y-15165D01*
X24434Y-15203D01*
X24434Y-15280D01*
X24415Y-15318D01*
X24377Y-15356D01*
X24301Y-15375D01*
X24167Y-15375D01*
X24091Y-15356D01*
X24053Y-15318D01*
X24034Y-15280D01*
X24224Y-14937D02*
X24224Y-14803D01*
X24434Y-14746D02*
X24434Y-14937D01*
X24034Y-14937D01*
X24034Y-14746D01*
X24053Y-14365D02*
X24034Y-14403D01*
X24034Y-14460D01*
X24053Y-14518D01*
X24091Y-14556D01*
X24129Y-14575D01*
X24205Y-14594D01*
X24262Y-14594D01*
X24339Y-14575D01*
X24377Y-14556D01*
X24415Y-14518D01*
X24434Y-14460D01*
X24434Y-14422D01*
X24415Y-14365D01*
X24396Y-14346D01*
X24262Y-14346D01*
X24262Y-14422D01*
X24434Y-14175D02*
X24034Y-14175D01*
X24434Y-13946D01*
X24034Y-13946D01*
X24434Y-13756D02*
X24034Y-13756D01*
X24034Y-13661D01*
X24053Y-13603D01*
X24091Y-13565D01*
X24129Y-13546D01*
X24205Y-13527D01*
X24262Y-13527D01*
X24339Y-13546D01*
X24377Y-13565D01*
X24415Y-13603D01*
X24434Y-13661D01*
X24434Y-13756D01*
X24072Y-13375D02*
X24053Y-13356D01*
X24034Y-13318D01*
X24034Y-13222D01*
X24053Y-13184D01*
X24072Y-13165D01*
X24110Y-13146D01*
X24148Y-13146D01*
X24205Y-13165D01*
X24434Y-13394D01*
X24434Y-13146D01*
X43193Y-15882D02*
X42793Y-15882D01*
X42793Y-15729D01*
X42812Y-15691D01*
X42831Y-15672D01*
X42869Y-15653D01*
X42926Y-15653D01*
X42964Y-15672D01*
X42983Y-15691D01*
X43002Y-15729D01*
X43002Y-15882D01*
X42793Y-15406D02*
X42793Y-15329D01*
X42812Y-15291D01*
X42850Y-15253D01*
X42926Y-15234D01*
X43060Y-15234D01*
X43136Y-15253D01*
X43174Y-15291D01*
X43193Y-15329D01*
X43193Y-15406D01*
X43174Y-15444D01*
X43136Y-15482D01*
X43060Y-15501D01*
X42926Y-15501D01*
X42850Y-15482D01*
X42812Y-15444D01*
X42793Y-15406D01*
X42983Y-15063D02*
X42983Y-14929D01*
X43193Y-14872D02*
X43193Y-15063D01*
X42793Y-15063D01*
X42793Y-14872D01*
X42812Y-14491D02*
X42793Y-14529D01*
X42793Y-14586D01*
X42812Y-14644D01*
X42850Y-14682D01*
X42888Y-14701D01*
X42964Y-14720D01*
X43021Y-14720D01*
X43098Y-14701D01*
X43136Y-14682D01*
X43174Y-14644D01*
X43193Y-14586D01*
X43193Y-14548D01*
X43174Y-14491D01*
X43155Y-14472D01*
X43021Y-14472D01*
X43021Y-14548D01*
X43193Y-14301D02*
X42793Y-14301D01*
X43193Y-14072D01*
X42793Y-14072D01*
X43193Y-13882D02*
X42793Y-13882D01*
X42793Y-13787D01*
X42812Y-13729D01*
X42850Y-13691D01*
X42888Y-13672D01*
X42964Y-13653D01*
X43021Y-13653D01*
X43098Y-13672D01*
X43136Y-13691D01*
X43174Y-13729D01*
X43193Y-13787D01*
X43193Y-13882D01*
X43193Y-13272D02*
X43193Y-13501D01*
X43193Y-13387D02*
X42793Y-13387D01*
X42850Y-13425D01*
X42888Y-13463D01*
X42907Y-13501D01*
X42963Y-21333D02*
X43363Y-21200D01*
X42963Y-21066D01*
X43153Y-20799D02*
X43172Y-20742D01*
X43191Y-20723D01*
X43230Y-20704D01*
X43287Y-20704D01*
X43325Y-20723D01*
X43344Y-20742D01*
X43363Y-20780D01*
X43363Y-20933D01*
X42963Y-20933D01*
X42963Y-20799D01*
X42982Y-20761D01*
X43001Y-20742D01*
X43039Y-20723D01*
X43077Y-20723D01*
X43115Y-20742D01*
X43134Y-20761D01*
X43153Y-20799D01*
X43153Y-20933D01*
X42963Y-20533D02*
X43287Y-20533D01*
X43325Y-20514D01*
X43344Y-20495D01*
X43363Y-20457D01*
X43363Y-20380D01*
X43344Y-20342D01*
X43325Y-20323D01*
X43287Y-20304D01*
X42963Y-20304D01*
X43344Y-20133D02*
X43363Y-20076D01*
X43363Y-19980D01*
X43344Y-19942D01*
X43325Y-19923D01*
X43287Y-19904D01*
X43249Y-19904D01*
X43211Y-19923D01*
X43191Y-19942D01*
X43172Y-19980D01*
X43153Y-20057D01*
X43134Y-20095D01*
X43115Y-20114D01*
X43077Y-20133D01*
X43039Y-20133D01*
X43001Y-20114D01*
X42982Y-20095D01*
X42963Y-20057D01*
X42963Y-19961D01*
X42982Y-19904D01*
X43363Y-19523D02*
X43363Y-19752D01*
X43363Y-19638D02*
X42963Y-19638D01*
X43020Y-19676D01*
X43058Y-19714D01*
X43077Y-19752D01*
X24018Y-21759D02*
X24418Y-21626D01*
X24018Y-21492D01*
X24208Y-21225D02*
X24227Y-21168D01*
X24246Y-21149D01*
X24285Y-21130D01*
X24342Y-21130D01*
X24380Y-21149D01*
X24399Y-21168D01*
X24418Y-21206D01*
X24418Y-21359D01*
X24018Y-21359D01*
X24018Y-21225D01*
X24037Y-21187D01*
X24056Y-21168D01*
X24094Y-21149D01*
X24132Y-21149D01*
X24170Y-21168D01*
X24189Y-21187D01*
X24208Y-21225D01*
X24208Y-21359D01*
X24018Y-20959D02*
X24342Y-20959D01*
X24380Y-20940D01*
X24399Y-20921D01*
X24418Y-20883D01*
X24418Y-20806D01*
X24399Y-20768D01*
X24380Y-20749D01*
X24342Y-20730D01*
X24018Y-20730D01*
X24399Y-20559D02*
X24418Y-20502D01*
X24418Y-20406D01*
X24399Y-20368D01*
X24380Y-20349D01*
X24342Y-20330D01*
X24304Y-20330D01*
X24266Y-20349D01*
X24246Y-20368D01*
X24227Y-20406D01*
X24208Y-20483D01*
X24189Y-20521D01*
X24170Y-20540D01*
X24132Y-20559D01*
X24094Y-20559D01*
X24056Y-20540D01*
X24037Y-20521D01*
X24018Y-20483D01*
X24018Y-20387D01*
X24037Y-20330D01*
X24056Y-20178D02*
X24037Y-20159D01*
X24018Y-20121D01*
X24018Y-20025D01*
X24037Y-19987D01*
X24056Y-19968D01*
X24094Y-19949D01*
X24132Y-19949D01*
X24189Y-19968D01*
X24418Y-20197D01*
X24418Y-19949D01*
G54D12*
X32769Y-21365D02*
X32669Y-21223D01*
X32597Y-21365D02*
X32597Y-21065D01*
X32712Y-21065D01*
X32740Y-21080D01*
X32755Y-21094D01*
X32769Y-21123D01*
X32769Y-21165D01*
X32755Y-21194D01*
X32740Y-21208D01*
X32712Y-21223D01*
X32597Y-21223D01*
X32940Y-21194D02*
X32912Y-21180D01*
X32897Y-21165D01*
X32883Y-21137D01*
X32883Y-21123D01*
X32897Y-21094D01*
X32912Y-21080D01*
X32940Y-21065D01*
X32997Y-21065D01*
X33026Y-21080D01*
X33040Y-21094D01*
X33055Y-21123D01*
X33055Y-21137D01*
X33040Y-21165D01*
X33026Y-21180D01*
X32997Y-21194D01*
X32940Y-21194D01*
X32912Y-21208D01*
X32897Y-21223D01*
X32883Y-21251D01*
X32883Y-21308D01*
X32897Y-21337D01*
X32912Y-21351D01*
X32940Y-21365D01*
X32997Y-21365D01*
X33026Y-21351D01*
X33040Y-21337D01*
X33055Y-21308D01*
X33055Y-21251D01*
X33040Y-21223D01*
X33026Y-21208D01*
X32997Y-21194D01*
X25976Y-21412D02*
X25976Y-21555D01*
X25676Y-21555D01*
X25976Y-21154D02*
X25976Y-21326D01*
X25976Y-21240D02*
X25676Y-21240D01*
X25719Y-21269D01*
X25748Y-21297D01*
X25762Y-21326D01*
X28945Y-21428D02*
X28945Y-21571D01*
X28645Y-21571D01*
X28674Y-21342D02*
X28660Y-21328D01*
X28645Y-21299D01*
X28645Y-21228D01*
X28660Y-21199D01*
X28674Y-21185D01*
X28703Y-21170D01*
X28731Y-21170D01*
X28774Y-21185D01*
X28945Y-21356D01*
X28945Y-21170D01*
X32121Y-24650D02*
X32121Y-24793D01*
X31821Y-24793D01*
X31821Y-24578D02*
X31821Y-24392D01*
X31936Y-24492D01*
X31936Y-24450D01*
X31950Y-24421D01*
X31964Y-24407D01*
X31993Y-24392D01*
X32064Y-24392D01*
X32093Y-24407D01*
X32107Y-24421D01*
X32121Y-24450D01*
X32121Y-24535D01*
X32107Y-24564D01*
X32093Y-24578D01*
X33376Y-24641D02*
X33376Y-24784D01*
X33076Y-24784D01*
X33176Y-24412D02*
X33376Y-24412D01*
X33062Y-24483D02*
X33276Y-24555D01*
X33276Y-24369D01*
X39595Y-21677D02*
X39452Y-21677D01*
X39452Y-21377D01*
X39838Y-21377D02*
X39695Y-21377D01*
X39681Y-21520D01*
X39695Y-21506D01*
X39724Y-21492D01*
X39795Y-21492D01*
X39824Y-21506D01*
X39838Y-21520D01*
X39853Y-21549D01*
X39853Y-21620D01*
X39838Y-21649D01*
X39824Y-21663D01*
X39795Y-21677D01*
X39724Y-21677D01*
X39695Y-21663D01*
X39681Y-21649D01*
X41489Y-21137D02*
X41489Y-21280D01*
X41189Y-21280D01*
X41189Y-20908D02*
X41189Y-20965D01*
X41204Y-20994D01*
X41218Y-21008D01*
X41261Y-21037D01*
X41318Y-21051D01*
X41432Y-21051D01*
X41461Y-21037D01*
X41475Y-21022D01*
X41489Y-20994D01*
X41489Y-20937D01*
X41475Y-20908D01*
X41461Y-20894D01*
X41432Y-20879D01*
X41361Y-20879D01*
X41332Y-20894D01*
X41318Y-20908D01*
X41304Y-20937D01*
X41304Y-20994D01*
X41318Y-21022D01*
X41332Y-21037D01*
X41361Y-21051D01*
X37022Y-16562D02*
X37022Y-16705D01*
X36722Y-16705D01*
X36722Y-16490D02*
X36722Y-16290D01*
X37022Y-16419D01*
X38532Y-18081D02*
X38389Y-18081D01*
X38389Y-17781D01*
X38675Y-17910D02*
X38647Y-17896D01*
X38632Y-17881D01*
X38618Y-17853D01*
X38618Y-17839D01*
X38632Y-17810D01*
X38647Y-17796D01*
X38675Y-17781D01*
X38732Y-17781D01*
X38761Y-17796D01*
X38775Y-17810D01*
X38790Y-17839D01*
X38790Y-17853D01*
X38775Y-17881D01*
X38761Y-17896D01*
X38732Y-17910D01*
X38675Y-17910D01*
X38647Y-17924D01*
X38632Y-17939D01*
X38618Y-17967D01*
X38618Y-18024D01*
X38632Y-18053D01*
X38647Y-18067D01*
X38675Y-18081D01*
X38732Y-18081D01*
X38761Y-18067D01*
X38775Y-18053D01*
X38790Y-18024D01*
X38790Y-17967D01*
X38775Y-17939D01*
X38761Y-17924D01*
X38732Y-17910D01*
X27981Y-19838D02*
X27881Y-19696D01*
X27809Y-19838D02*
X27809Y-19538D01*
X27924Y-19538D01*
X27952Y-19553D01*
X27967Y-19567D01*
X27981Y-19596D01*
X27981Y-19638D01*
X27967Y-19667D01*
X27952Y-19681D01*
X27924Y-19696D01*
X27809Y-19696D01*
X28124Y-19838D02*
X28181Y-19838D01*
X28209Y-19824D01*
X28224Y-19810D01*
X28252Y-19767D01*
X28267Y-19710D01*
X28267Y-19596D01*
X28252Y-19567D01*
X28238Y-19553D01*
X28209Y-19538D01*
X28152Y-19538D01*
X28124Y-19553D01*
X28109Y-19567D01*
X28095Y-19596D01*
X28095Y-19667D01*
X28109Y-19696D01*
X28124Y-19710D01*
X28152Y-19724D01*
X28209Y-19724D01*
X28238Y-19710D01*
X28252Y-19696D01*
X28267Y-19667D01*
X34952Y-20019D02*
X34852Y-19877D01*
X34780Y-20019D02*
X34780Y-19719D01*
X34895Y-19719D01*
X34923Y-19734D01*
X34938Y-19748D01*
X34952Y-19777D01*
X34952Y-19819D01*
X34938Y-19848D01*
X34923Y-19862D01*
X34895Y-19877D01*
X34780Y-19877D01*
X35238Y-20019D02*
X35066Y-20019D01*
X35152Y-20019D02*
X35152Y-19719D01*
X35123Y-19762D01*
X35095Y-19791D01*
X35066Y-19805D01*
X35424Y-19719D02*
X35452Y-19719D01*
X35481Y-19734D01*
X35495Y-19748D01*
X35509Y-19777D01*
X35524Y-19834D01*
X35524Y-19905D01*
X35509Y-19962D01*
X35495Y-19991D01*
X35481Y-20005D01*
X35452Y-20019D01*
X35424Y-20019D01*
X35395Y-20005D01*
X35381Y-19991D01*
X35366Y-19962D01*
X35352Y-19905D01*
X35352Y-19834D01*
X35366Y-19777D01*
X35381Y-19748D01*
X35395Y-19734D01*
X35424Y-19719D01*
G54D17*
X42264Y-21547D02*
X42245Y-21538D01*
X42227Y-21519D01*
X42199Y-21491D01*
X42180Y-21481D01*
X42161Y-21481D01*
X42170Y-21528D02*
X42152Y-21519D01*
X42133Y-21500D01*
X42124Y-21463D01*
X42124Y-21397D01*
X42133Y-21359D01*
X42152Y-21341D01*
X42170Y-21331D01*
X42208Y-21331D01*
X42227Y-21341D01*
X42245Y-21359D01*
X42255Y-21397D01*
X42255Y-21463D01*
X42245Y-21500D01*
X42227Y-21519D01*
X42208Y-21528D01*
X42170Y-21528D01*
X42320Y-21331D02*
X42442Y-21331D01*
X42376Y-21406D01*
X42405Y-21406D01*
X42423Y-21416D01*
X42433Y-21425D01*
X42442Y-21444D01*
X42442Y-21491D01*
X42433Y-21509D01*
X42423Y-21519D01*
X42405Y-21528D01*
X42348Y-21528D01*
X42330Y-21519D01*
X42320Y-21509D01*
X27649Y-20991D02*
X27640Y-21010D01*
X27621Y-21028D01*
X27593Y-21056D01*
X27583Y-21075D01*
X27583Y-21094D01*
X27630Y-21085D02*
X27621Y-21103D01*
X27602Y-21122D01*
X27565Y-21131D01*
X27499Y-21131D01*
X27461Y-21122D01*
X27443Y-21103D01*
X27433Y-21085D01*
X27433Y-21047D01*
X27443Y-21028D01*
X27461Y-21010D01*
X27499Y-21000D01*
X27565Y-21000D01*
X27602Y-21010D01*
X27621Y-21028D01*
X27630Y-21047D01*
X27630Y-21085D01*
X27630Y-20813D02*
X27630Y-20925D01*
X27630Y-20869D02*
X27433Y-20869D01*
X27461Y-20888D01*
X27480Y-20907D01*
X27490Y-20925D01*
G54D18*
X33573Y-15188D02*
X33573Y-14950D01*
X33715Y-15235D02*
X33215Y-15069D01*
X33715Y-14902D01*
X33215Y-14806D02*
X33215Y-14521D01*
X33715Y-14664D02*
X33215Y-14664D01*
X33215Y-14425D02*
X33215Y-14140D01*
X33715Y-14283D02*
X33215Y-14283D01*
X33715Y-13973D02*
X33215Y-13973D01*
X33715Y-13735D02*
X33215Y-13735D01*
X33715Y-13449D01*
X33215Y-13449D01*
X33477Y-13116D02*
X33715Y-13116D01*
X33215Y-13282D02*
X33477Y-13116D01*
X33215Y-12949D01*
X33382Y-12568D02*
X33715Y-12568D01*
X33192Y-12687D02*
X33549Y-12806D01*
X33549Y-12496D01*
X33382Y-12092D02*
X33715Y-12092D01*
X33192Y-12211D02*
X33549Y-12330D01*
X33549Y-12020D01*
X33525Y-11830D02*
X33525Y-11449D01*
X33692Y-11235D02*
X33715Y-11163D01*
X33715Y-11044D01*
X33692Y-10997D01*
X33668Y-10973D01*
X33620Y-10949D01*
X33573Y-10949D01*
X33525Y-10973D01*
X33501Y-10997D01*
X33477Y-11044D01*
X33453Y-11140D01*
X33430Y-11187D01*
X33406Y-11211D01*
X33358Y-11235D01*
X33311Y-11235D01*
X33263Y-11211D01*
X33239Y-11187D01*
X33215Y-11140D01*
X33215Y-11020D01*
X33239Y-10949D01*
X33692Y-10759D02*
X33715Y-10687D01*
X33715Y-10568D01*
X33692Y-10521D01*
X33668Y-10497D01*
X33620Y-10473D01*
X33573Y-10473D01*
X33525Y-10497D01*
X33501Y-10521D01*
X33477Y-10568D01*
X33453Y-10664D01*
X33430Y-10711D01*
X33406Y-10735D01*
X33358Y-10759D01*
X33311Y-10759D01*
X33263Y-10735D01*
X33239Y-10711D01*
X33215Y-10664D01*
X33215Y-10544D01*
X33239Y-10473D01*
G54D12*
X35743Y-17109D02*
X35757Y-17123D01*
X35771Y-17166D01*
X35771Y-17195D01*
X35757Y-17238D01*
X35729Y-17266D01*
X35700Y-17281D01*
X35643Y-17295D01*
X35600Y-17295D01*
X35543Y-17281D01*
X35514Y-17266D01*
X35486Y-17238D01*
X35471Y-17195D01*
X35471Y-17166D01*
X35486Y-17123D01*
X35500Y-17109D01*
X35771Y-16823D02*
X35771Y-16995D01*
X35771Y-16909D02*
X35471Y-16909D01*
X35514Y-16938D01*
X35543Y-16966D01*
X35557Y-16995D01*
X34760Y-24412D02*
X34660Y-24270D01*
X34588Y-24412D02*
X34588Y-24112D01*
X34703Y-24112D01*
X34731Y-24127D01*
X34746Y-24141D01*
X34760Y-24170D01*
X34760Y-24212D01*
X34746Y-24241D01*
X34731Y-24255D01*
X34703Y-24270D01*
X34588Y-24270D01*
X35046Y-24412D02*
X34874Y-24412D01*
X34960Y-24412D02*
X34960Y-24112D01*
X34931Y-24155D01*
X34903Y-24184D01*
X34874Y-24198D01*
X35332Y-24412D02*
X35160Y-24412D01*
X35246Y-24412D02*
X35246Y-24112D01*
X35217Y-24155D01*
X35189Y-24184D01*
X35160Y-24198D01*
X31299Y-22751D02*
X31199Y-22609D01*
X31127Y-22751D02*
X31127Y-22451D01*
X31242Y-22451D01*
X31270Y-22466D01*
X31285Y-22480D01*
X31299Y-22509D01*
X31299Y-22551D01*
X31285Y-22580D01*
X31270Y-22594D01*
X31242Y-22609D01*
X31127Y-22609D01*
X31585Y-22751D02*
X31413Y-22751D01*
X31499Y-22751D02*
X31499Y-22451D01*
X31470Y-22494D01*
X31442Y-22523D01*
X31413Y-22537D01*
X31699Y-22480D02*
X31713Y-22466D01*
X31742Y-22451D01*
X31813Y-22451D01*
X31842Y-22466D01*
X31856Y-22480D01*
X31871Y-22509D01*
X31871Y-22537D01*
X31856Y-22580D01*
X31685Y-22751D01*
X31871Y-22751D01*
X32610Y-26420D02*
X32510Y-26278D01*
X32438Y-26420D02*
X32438Y-26120D01*
X32553Y-26120D01*
X32581Y-26135D01*
X32596Y-26149D01*
X32610Y-26178D01*
X32610Y-26220D01*
X32596Y-26249D01*
X32581Y-26263D01*
X32553Y-26278D01*
X32438Y-26278D01*
X32896Y-26420D02*
X32724Y-26420D01*
X32810Y-26420D02*
X32810Y-26120D01*
X32781Y-26163D01*
X32753Y-26192D01*
X32724Y-26206D01*
X32996Y-26120D02*
X33182Y-26120D01*
X33082Y-26235D01*
X33124Y-26235D01*
X33153Y-26249D01*
X33167Y-26263D01*
X33182Y-26292D01*
X33182Y-26363D01*
X33167Y-26392D01*
X33153Y-26406D01*
X33124Y-26420D01*
X33039Y-26420D01*
X33010Y-26406D01*
X32996Y-26392D01*
X43003Y-24193D02*
X42861Y-24293D01*
X43003Y-24365D02*
X42703Y-24365D01*
X42703Y-24250D01*
X42718Y-24222D01*
X42732Y-24207D01*
X42761Y-24193D01*
X42803Y-24193D01*
X42832Y-24207D01*
X42846Y-24222D01*
X42861Y-24250D01*
X42861Y-24365D01*
X43003Y-23907D02*
X43003Y-24079D01*
X43003Y-23993D02*
X42703Y-23993D01*
X42746Y-24022D01*
X42775Y-24050D01*
X42789Y-24079D01*
X42803Y-23650D02*
X43003Y-23650D01*
X42689Y-23721D02*
X42903Y-23793D01*
X42903Y-23607D01*
X34760Y-25412D02*
X34660Y-25270D01*
X34588Y-25412D02*
X34588Y-25112D01*
X34703Y-25112D01*
X34731Y-25127D01*
X34746Y-25141D01*
X34760Y-25170D01*
X34760Y-25212D01*
X34746Y-25241D01*
X34731Y-25255D01*
X34703Y-25270D01*
X34588Y-25270D01*
X35046Y-25412D02*
X34874Y-25412D01*
X34960Y-25412D02*
X34960Y-25112D01*
X34931Y-25155D01*
X34903Y-25184D01*
X34874Y-25198D01*
X35317Y-25112D02*
X35174Y-25112D01*
X35160Y-25255D01*
X35174Y-25241D01*
X35203Y-25227D01*
X35274Y-25227D01*
X35303Y-25241D01*
X35317Y-25255D01*
X35332Y-25284D01*
X35332Y-25355D01*
X35317Y-25384D01*
X35303Y-25398D01*
X35274Y-25412D01*
X35203Y-25412D01*
X35174Y-25398D01*
X35160Y-25384D01*
X34807Y-26448D02*
X34707Y-26306D01*
X34635Y-26448D02*
X34635Y-26148D01*
X34750Y-26148D01*
X34778Y-26163D01*
X34793Y-26177D01*
X34807Y-26206D01*
X34807Y-26248D01*
X34793Y-26277D01*
X34778Y-26291D01*
X34750Y-26306D01*
X34635Y-26306D01*
X35093Y-26448D02*
X34921Y-26448D01*
X35007Y-26448D02*
X35007Y-26148D01*
X34978Y-26191D01*
X34950Y-26220D01*
X34921Y-26234D01*
X35350Y-26148D02*
X35293Y-26148D01*
X35264Y-26163D01*
X35250Y-26177D01*
X35221Y-26220D01*
X35207Y-26277D01*
X35207Y-26391D01*
X35221Y-26420D01*
X35236Y-26434D01*
X35264Y-26448D01*
X35321Y-26448D01*
X35350Y-26434D01*
X35364Y-26420D01*
X35379Y-26391D01*
X35379Y-26320D01*
X35364Y-26291D01*
X35350Y-26277D01*
X35321Y-26263D01*
X35264Y-26263D01*
X35236Y-26277D01*
X35221Y-26291D01*
X35207Y-26320D01*
%LPC*%
G54D19*
X34500Y-19304D03*
X34500Y-18554D03*
X33500Y-19304D03*
X34500Y-18929D03*
X33500Y-18554D03*
G54D20*
X27373Y-18992D03*
X28123Y-18992D03*
X27373Y-17992D03*
X27748Y-18992D03*
X28123Y-17992D03*
G54D21*
X30161Y-21469D03*
X31161Y-21094D03*
X31161Y-21844D03*
X34508Y-22378D03*
X33508Y-22753D03*
X33508Y-22003D03*
G54D22*
X24988Y-10606D03*
G54D23*
X26188Y-15156D03*
X26688Y-15156D03*
X27188Y-15156D03*
X27688Y-15156D03*
X28188Y-15156D03*
X28688Y-15156D03*
X29188Y-15156D03*
X29688Y-15156D03*
G54D22*
X30888Y-10606D03*
X36353Y-10614D03*
G54D23*
X37553Y-15164D03*
X38053Y-15164D03*
X38553Y-15164D03*
X39053Y-15164D03*
X39553Y-15164D03*
X40053Y-15164D03*
X40553Y-15164D03*
X41053Y-15164D03*
G54D22*
X42253Y-10614D03*
X30906Y-27953D03*
G54D23*
X29706Y-23403D03*
X29206Y-23403D03*
X28706Y-23403D03*
X28206Y-23403D03*
X27706Y-23403D03*
X27206Y-23403D03*
X26706Y-23403D03*
X26206Y-23403D03*
G54D22*
X25006Y-27953D03*
X42216Y-27898D03*
G54D23*
X41016Y-23348D03*
X40516Y-23348D03*
X40016Y-23348D03*
X39516Y-23348D03*
X39016Y-23348D03*
X38516Y-23348D03*
X38016Y-23348D03*
X37516Y-23348D03*
G54D22*
X36316Y-27898D03*
G54D24*
X29008Y-17974D03*
X29008Y-16774D03*
X32453Y-19982D03*
X32453Y-18782D03*
G54D25*
X34495Y-20898D03*
X35795Y-20898D03*
X31504Y-19921D03*
X30204Y-19921D03*
G54D26*
X35295Y-23367D03*
X35295Y-22067D03*
X26398Y-18630D03*
X26398Y-19930D03*
G54D25*
X36644Y-18866D03*
X37944Y-18866D03*
G54D27*
X32311Y-17772D03*
X32311Y-16772D03*
X32311Y-15772D03*
X34491Y-17772D03*
X34491Y-16772D03*
X34491Y-15772D03*
G54D28*
X25039Y-16728D03*
X42224Y-16807D03*
X42098Y-19343D03*
X25091Y-18969D03*
G54D25*
X32169Y-21244D03*
X33469Y-21244D03*
G54D24*
X26055Y-21962D03*
X26055Y-20762D03*
X29024Y-21978D03*
X29024Y-20778D03*
X31800Y-24000D03*
X31800Y-25200D03*
X33055Y-23991D03*
X33055Y-25191D03*
G54D29*
X39045Y-21756D03*
X40245Y-21756D03*
G54D24*
X41168Y-20487D03*
X41168Y-21687D03*
X36701Y-15912D03*
X36701Y-17112D03*
G54D29*
X39182Y-17760D03*
X37982Y-17760D03*
G54D25*
X28681Y-19717D03*
X27381Y-19717D03*
X34495Y-19898D03*
X35795Y-19898D03*
G54D30*
X41959Y-21802D03*
X42709Y-21802D03*
X42334Y-21802D03*
X42709Y-20970D03*
X41959Y-20970D03*
X42334Y-20970D03*
G54D31*
X27967Y-21627D03*
X27967Y-20877D03*
X27967Y-21252D03*
X27135Y-20877D03*
X27135Y-21627D03*
X27135Y-21252D03*
G54D32*
X34513Y-14831D03*
X34513Y-14331D03*
X34513Y-13831D03*
X34513Y-13331D03*
X34513Y-12831D03*
X34513Y-12331D03*
X34513Y-11831D03*
X32463Y-11831D03*
X32463Y-12331D03*
X32463Y-12831D03*
X32463Y-13331D03*
X32463Y-13831D03*
X32463Y-14331D03*
X32463Y-14831D03*
G54D26*
X35650Y-17709D03*
X35650Y-16409D03*
G54D25*
X35603Y-24291D03*
X34303Y-24291D03*
X30842Y-22630D03*
X32142Y-22630D03*
X33453Y-26299D03*
X32153Y-26299D03*
G54D26*
X42882Y-23350D03*
X42882Y-24650D03*
G54D25*
X34303Y-25291D03*
X35603Y-25291D03*
X35650Y-26327D03*
X34350Y-26327D03*
M02*
