G04 (created by PCBNEW-RS274X (2012-01-19 BZR 3256)-stable) date 2/17/2013 5:40:49 PM*
G01*
G70*
G90*
%MOIN*%
G04 Gerber Fmt 3.4, Leading zero omitted, Abs format*
%FSLAX34Y34*%
G04 APERTURE LIST*
%ADD10C,0.006000*%
%ADD11C,0.015000*%
%ADD12C,0.002600*%
%ADD13C,0.003000*%
%ADD14C,0.005000*%
%ADD15C,0.012000*%
%ADD16C,0.010000*%
%ADD17C,0.003500*%
%ADD18R,0.139000X0.058000*%
%ADD19R,0.689300X0.649900*%
%ADD20C,0.180000*%
%ADD21R,0.044000X0.106900*%
%ADD22R,0.083000X0.146000*%
%ADD23R,0.275900X0.295600*%
%ADD24R,0.040000X0.065000*%
%ADD25R,0.130000X0.229000*%
%ADD26R,0.080000X0.100000*%
G04 APERTURE END LIST*
G54D10*
G54D11*
X39724Y-24642D02*
X39756Y-24642D01*
X39724Y-44311D02*
X39724Y-24642D01*
X59358Y-44311D02*
X39724Y-44311D01*
X59358Y-24642D02*
X59358Y-44311D01*
X39724Y-24642D02*
X59358Y-24642D01*
X59199Y-43260D02*
X59181Y-43434D01*
X59131Y-43602D01*
X59048Y-43758D01*
X58937Y-43894D01*
X58802Y-44006D01*
X58647Y-44089D01*
X58479Y-44141D01*
X58305Y-44159D01*
X58131Y-44144D01*
X57962Y-44094D01*
X57807Y-44013D01*
X57670Y-43903D01*
X57557Y-43768D01*
X57472Y-43614D01*
X57419Y-43447D01*
X57400Y-43272D01*
X57414Y-43098D01*
X57463Y-42929D01*
X57543Y-42773D01*
X57652Y-42635D01*
X57786Y-42521D01*
X57939Y-42436D01*
X58106Y-42381D01*
X58281Y-42361D01*
X58455Y-42374D01*
X58624Y-42421D01*
X58781Y-42501D01*
X58919Y-42609D01*
X59034Y-42742D01*
X59121Y-42894D01*
X59176Y-43061D01*
X59198Y-43235D01*
X59199Y-43260D01*
X41683Y-26575D02*
X41665Y-26749D01*
X41615Y-26917D01*
X41532Y-27073D01*
X41421Y-27209D01*
X41286Y-27321D01*
X41131Y-27404D01*
X40963Y-27456D01*
X40789Y-27474D01*
X40615Y-27459D01*
X40446Y-27409D01*
X40291Y-27328D01*
X40154Y-27218D01*
X40041Y-27083D01*
X39956Y-26929D01*
X39903Y-26762D01*
X39884Y-26587D01*
X39898Y-26413D01*
X39947Y-26244D01*
X40027Y-26088D01*
X40136Y-25950D01*
X40270Y-25836D01*
X40423Y-25751D01*
X40590Y-25696D01*
X40765Y-25676D01*
X40939Y-25689D01*
X41108Y-25736D01*
X41265Y-25816D01*
X41403Y-25924D01*
X41518Y-26057D01*
X41605Y-26209D01*
X41660Y-26376D01*
X41682Y-26550D01*
X41683Y-26575D01*
G54D12*
X58106Y-29960D02*
X57965Y-29960D01*
X57965Y-29960D02*
X57965Y-30360D01*
X58106Y-30360D02*
X57965Y-30360D01*
X58106Y-29960D02*
X58106Y-30360D01*
X57606Y-29960D02*
X57466Y-29960D01*
X57466Y-29960D02*
X57466Y-30360D01*
X57606Y-30360D02*
X57466Y-30360D01*
X57606Y-29960D02*
X57606Y-30360D01*
X57106Y-29960D02*
X56965Y-29960D01*
X56965Y-29960D02*
X56965Y-30360D01*
X57106Y-30360D02*
X56965Y-30360D01*
X57106Y-29960D02*
X57106Y-30360D01*
X56606Y-29960D02*
X56466Y-29960D01*
X56466Y-29960D02*
X56466Y-30360D01*
X56606Y-30360D02*
X56466Y-30360D01*
X56606Y-29960D02*
X56606Y-30360D01*
X56107Y-29960D02*
X55966Y-29960D01*
X55966Y-29960D02*
X55966Y-30360D01*
X56107Y-30360D02*
X55966Y-30360D01*
X56107Y-29960D02*
X56107Y-30360D01*
X55606Y-29960D02*
X55466Y-29960D01*
X55466Y-29960D02*
X55466Y-30360D01*
X55606Y-30360D02*
X55466Y-30360D01*
X55606Y-29960D02*
X55606Y-30360D01*
X55107Y-29960D02*
X54966Y-29960D01*
X54966Y-29960D02*
X54966Y-30360D01*
X55107Y-30360D02*
X54966Y-30360D01*
X55107Y-29960D02*
X55107Y-30360D01*
X55107Y-28110D02*
X54966Y-28110D01*
X54966Y-28110D02*
X54966Y-28510D01*
X55107Y-28510D02*
X54966Y-28510D01*
X55107Y-28110D02*
X55107Y-28510D01*
X55606Y-28110D02*
X55466Y-28110D01*
X55466Y-28110D02*
X55466Y-28510D01*
X55606Y-28510D02*
X55466Y-28510D01*
X55606Y-28110D02*
X55606Y-28510D01*
X56107Y-28110D02*
X55966Y-28110D01*
X55966Y-28110D02*
X55966Y-28510D01*
X56107Y-28510D02*
X55966Y-28510D01*
X56107Y-28110D02*
X56107Y-28510D01*
X56606Y-28110D02*
X56466Y-28110D01*
X56466Y-28110D02*
X56466Y-28510D01*
X56606Y-28510D02*
X56466Y-28510D01*
X56606Y-28110D02*
X56606Y-28510D01*
X57106Y-28110D02*
X56965Y-28110D01*
X56965Y-28110D02*
X56965Y-28510D01*
X57106Y-28510D02*
X56965Y-28510D01*
X57106Y-28110D02*
X57106Y-28510D01*
X57606Y-28110D02*
X57466Y-28110D01*
X57466Y-28110D02*
X57466Y-28510D01*
X57606Y-28510D02*
X57466Y-28510D01*
X57606Y-28110D02*
X57606Y-28510D01*
X58106Y-28110D02*
X57965Y-28110D01*
X57965Y-28110D02*
X57965Y-28510D01*
X58106Y-28510D02*
X57965Y-28510D01*
X58106Y-28110D02*
X58106Y-28510D01*
G54D10*
X58215Y-28530D02*
X54857Y-28530D01*
X54857Y-28530D02*
X54857Y-29940D01*
X54857Y-29940D02*
X58215Y-29940D01*
X58215Y-29940D02*
X58215Y-28530D01*
G54D13*
X58064Y-28930D02*
X58061Y-28958D01*
X58052Y-28986D01*
X58039Y-29011D01*
X58021Y-29034D01*
X57998Y-29052D01*
X57973Y-29066D01*
X57945Y-29074D01*
X57917Y-29077D01*
X57889Y-29075D01*
X57861Y-29067D01*
X57835Y-29053D01*
X57813Y-29035D01*
X57794Y-29013D01*
X57780Y-28988D01*
X57772Y-28960D01*
X57769Y-28932D01*
X57771Y-28904D01*
X57779Y-28876D01*
X57792Y-28850D01*
X57810Y-28828D01*
X57832Y-28809D01*
X57857Y-28795D01*
X57885Y-28786D01*
X57913Y-28783D01*
X57941Y-28785D01*
X57969Y-28793D01*
X57995Y-28806D01*
X58018Y-28823D01*
X58036Y-28845D01*
X58051Y-28870D01*
X58060Y-28898D01*
X58063Y-28926D01*
X58064Y-28930D01*
G54D14*
X55364Y-35245D02*
X55364Y-35715D01*
X55364Y-35715D02*
X53234Y-35715D01*
X53234Y-35715D02*
X53234Y-35240D01*
X53619Y-32880D02*
X53619Y-31735D01*
X53169Y-31735D02*
X53169Y-32880D01*
X53619Y-31735D02*
X53169Y-31735D01*
X55429Y-31735D02*
X54979Y-31735D01*
X54979Y-31735D02*
X54979Y-32880D01*
X55429Y-32880D02*
X55429Y-31735D01*
X52979Y-32880D02*
X52979Y-35240D01*
X52979Y-35240D02*
X55619Y-35240D01*
X55619Y-35240D02*
X55619Y-32880D01*
X52979Y-32880D02*
X55619Y-32880D01*
X48809Y-29298D02*
X48809Y-28828D01*
X48809Y-28828D02*
X50939Y-28828D01*
X50939Y-28828D02*
X50939Y-29303D01*
X50554Y-31663D02*
X50554Y-32808D01*
X51004Y-32808D02*
X51004Y-31663D01*
X50554Y-32808D02*
X51004Y-32808D01*
X48744Y-32808D02*
X49194Y-32808D01*
X49194Y-32808D02*
X49194Y-31663D01*
X48744Y-31663D02*
X48744Y-32808D01*
X51194Y-31663D02*
X51194Y-29303D01*
X51194Y-29303D02*
X48554Y-29303D01*
X48554Y-29303D02*
X48554Y-31663D01*
X51194Y-31663D02*
X48554Y-31663D01*
X55163Y-42091D02*
X55163Y-42561D01*
X55163Y-42561D02*
X53033Y-42561D01*
X53033Y-42561D02*
X53033Y-42086D01*
X53418Y-39726D02*
X53418Y-38581D01*
X52968Y-38581D02*
X52968Y-39726D01*
X53418Y-38581D02*
X52968Y-38581D01*
X55228Y-38581D02*
X54778Y-38581D01*
X54778Y-38581D02*
X54778Y-39726D01*
X55228Y-39726D02*
X55228Y-38581D01*
X52778Y-39726D02*
X52778Y-42086D01*
X52778Y-42086D02*
X55418Y-42086D01*
X55418Y-42086D02*
X55418Y-39726D01*
X52778Y-39726D02*
X55418Y-39726D01*
X48774Y-35180D02*
X48774Y-34710D01*
X48774Y-34710D02*
X50904Y-34710D01*
X50904Y-34710D02*
X50904Y-35185D01*
X50519Y-37545D02*
X50519Y-38690D01*
X50969Y-38690D02*
X50969Y-37545D01*
X50519Y-38690D02*
X50969Y-38690D01*
X48709Y-38690D02*
X49159Y-38690D01*
X49159Y-38690D02*
X49159Y-37545D01*
X48709Y-37545D02*
X48709Y-38690D01*
X51159Y-37545D02*
X51159Y-35185D01*
X51159Y-35185D02*
X48519Y-35185D01*
X48519Y-35185D02*
X48519Y-37545D01*
X51159Y-37545D02*
X48519Y-37545D01*
X58539Y-34156D02*
X56539Y-34156D01*
X56539Y-34156D02*
X56539Y-32356D01*
X56539Y-32356D02*
X58539Y-32356D01*
X58539Y-32356D02*
X58539Y-34156D01*
X58539Y-33556D02*
X58339Y-33556D01*
X58339Y-33556D02*
X58339Y-33056D01*
X58339Y-33056D02*
X58539Y-33056D01*
X54858Y-27619D02*
X54858Y-26719D01*
X54858Y-26719D02*
X54208Y-26719D01*
X53508Y-27619D02*
X52858Y-27619D01*
X52858Y-27619D02*
X52858Y-26719D01*
X52858Y-26719D02*
X53508Y-26719D01*
X54208Y-27619D02*
X54858Y-27619D01*
G54D15*
X42822Y-36279D02*
X42850Y-36308D01*
X42879Y-36394D01*
X42879Y-36451D01*
X42850Y-36536D01*
X42793Y-36594D01*
X42736Y-36622D01*
X42622Y-36651D01*
X42536Y-36651D01*
X42422Y-36622D01*
X42365Y-36594D01*
X42307Y-36536D01*
X42279Y-36451D01*
X42279Y-36394D01*
X42307Y-36308D01*
X42336Y-36279D01*
X42879Y-35708D02*
X42879Y-36051D01*
X42879Y-35879D02*
X42279Y-35879D01*
X42365Y-35936D01*
X42422Y-35994D01*
X42450Y-36051D01*
G54D16*
X58004Y-42222D02*
X58004Y-41822D01*
X58157Y-41822D01*
X58195Y-41841D01*
X58214Y-41860D01*
X58233Y-41898D01*
X58233Y-41955D01*
X58214Y-41993D01*
X58195Y-42012D01*
X58157Y-42031D01*
X58004Y-42031D01*
X58366Y-41822D02*
X58614Y-41822D01*
X58480Y-41974D01*
X58538Y-41974D01*
X58576Y-41993D01*
X58595Y-42012D01*
X58614Y-42050D01*
X58614Y-42146D01*
X58595Y-42184D01*
X58576Y-42203D01*
X58538Y-42222D01*
X58423Y-42222D01*
X58385Y-42203D01*
X58366Y-42184D01*
X40488Y-25537D02*
X40488Y-25137D01*
X40641Y-25137D01*
X40679Y-25156D01*
X40698Y-25175D01*
X40717Y-25213D01*
X40717Y-25270D01*
X40698Y-25308D01*
X40679Y-25327D01*
X40641Y-25346D01*
X40488Y-25346D01*
X41060Y-25270D02*
X41060Y-25537D01*
X40964Y-25118D02*
X40869Y-25404D01*
X41117Y-25404D01*
G54D17*
X53464Y-29270D02*
X53702Y-29270D01*
X53417Y-29412D02*
X53583Y-28912D01*
X53750Y-29412D01*
X53846Y-28912D02*
X54131Y-28912D01*
X53988Y-29412D02*
X53988Y-28912D01*
X54227Y-28912D02*
X54512Y-28912D01*
X54369Y-29412D02*
X54369Y-28912D01*
X54679Y-29412D02*
X54679Y-28912D01*
X54917Y-29412D02*
X54917Y-28912D01*
X55203Y-29412D01*
X55203Y-28912D01*
X55536Y-29174D02*
X55536Y-29412D01*
X55370Y-28912D02*
X55536Y-29174D01*
X55703Y-28912D01*
X56084Y-29079D02*
X56084Y-29412D01*
X55965Y-28889D02*
X55846Y-29246D01*
X56156Y-29246D01*
X56560Y-29079D02*
X56560Y-29412D01*
X56441Y-28889D02*
X56322Y-29246D01*
X56632Y-29246D01*
X56798Y-29270D02*
X57036Y-29270D01*
X56751Y-29412D02*
X56917Y-28912D01*
X57084Y-29412D01*
X57251Y-29222D02*
X57632Y-29222D01*
X57846Y-29389D02*
X57918Y-29412D01*
X58037Y-29412D01*
X58084Y-29389D01*
X58108Y-29365D01*
X58132Y-29317D01*
X58132Y-29270D01*
X58108Y-29222D01*
X58084Y-29198D01*
X58037Y-29174D01*
X57941Y-29150D01*
X57894Y-29127D01*
X57870Y-29103D01*
X57846Y-29055D01*
X57846Y-29008D01*
X57870Y-28960D01*
X57894Y-28936D01*
X57941Y-28912D01*
X58061Y-28912D01*
X58132Y-28936D01*
X58322Y-29389D02*
X58394Y-29412D01*
X58513Y-29412D01*
X58560Y-29389D01*
X58584Y-29365D01*
X58608Y-29317D01*
X58608Y-29270D01*
X58584Y-29222D01*
X58560Y-29198D01*
X58513Y-29174D01*
X58417Y-29150D01*
X58370Y-29127D01*
X58346Y-29103D01*
X58322Y-29055D01*
X58322Y-29008D01*
X58346Y-28960D01*
X58370Y-28936D01*
X58417Y-28912D01*
X58537Y-28912D01*
X58608Y-28936D01*
G54D15*
X54242Y-37090D02*
X54185Y-37061D01*
X54128Y-37004D01*
X54042Y-36919D01*
X53985Y-36890D01*
X53928Y-36890D01*
X53956Y-37033D02*
X53899Y-37004D01*
X53842Y-36947D01*
X53813Y-36833D01*
X53813Y-36633D01*
X53842Y-36519D01*
X53899Y-36461D01*
X53956Y-36433D01*
X54070Y-36433D01*
X54128Y-36461D01*
X54185Y-36519D01*
X54213Y-36633D01*
X54213Y-36833D01*
X54185Y-36947D01*
X54128Y-37004D01*
X54070Y-37033D01*
X53956Y-37033D01*
X54442Y-36490D02*
X54471Y-36461D01*
X54528Y-36433D01*
X54671Y-36433D01*
X54728Y-36461D01*
X54757Y-36490D01*
X54785Y-36547D01*
X54785Y-36604D01*
X54757Y-36690D01*
X54414Y-37033D01*
X54785Y-37033D01*
X49817Y-28053D02*
X49760Y-28024D01*
X49703Y-27967D01*
X49617Y-27882D01*
X49560Y-27853D01*
X49503Y-27853D01*
X49531Y-27996D02*
X49474Y-27967D01*
X49417Y-27910D01*
X49388Y-27796D01*
X49388Y-27596D01*
X49417Y-27482D01*
X49474Y-27424D01*
X49531Y-27396D01*
X49645Y-27396D01*
X49703Y-27424D01*
X49760Y-27482D01*
X49788Y-27596D01*
X49788Y-27796D01*
X49760Y-27910D01*
X49703Y-27967D01*
X49645Y-27996D01*
X49531Y-27996D01*
X50360Y-27996D02*
X50017Y-27996D01*
X50189Y-27996D02*
X50189Y-27396D01*
X50132Y-27482D01*
X50074Y-27539D01*
X50017Y-27567D01*
X54041Y-43936D02*
X53984Y-43907D01*
X53927Y-43850D01*
X53841Y-43765D01*
X53784Y-43736D01*
X53727Y-43736D01*
X53755Y-43879D02*
X53698Y-43850D01*
X53641Y-43793D01*
X53612Y-43679D01*
X53612Y-43479D01*
X53641Y-43365D01*
X53698Y-43307D01*
X53755Y-43279D01*
X53869Y-43279D01*
X53927Y-43307D01*
X53984Y-43365D01*
X54012Y-43479D01*
X54012Y-43679D01*
X53984Y-43793D01*
X53927Y-43850D01*
X53869Y-43879D01*
X53755Y-43879D01*
X54213Y-43279D02*
X54584Y-43279D01*
X54384Y-43507D01*
X54470Y-43507D01*
X54527Y-43536D01*
X54556Y-43565D01*
X54584Y-43622D01*
X54584Y-43765D01*
X54556Y-43822D01*
X54527Y-43850D01*
X54470Y-43879D01*
X54298Y-43879D01*
X54241Y-43850D01*
X54213Y-43822D01*
X49782Y-33935D02*
X49725Y-33906D01*
X49668Y-33849D01*
X49582Y-33764D01*
X49525Y-33735D01*
X49468Y-33735D01*
X49496Y-33878D02*
X49439Y-33849D01*
X49382Y-33792D01*
X49353Y-33678D01*
X49353Y-33478D01*
X49382Y-33364D01*
X49439Y-33306D01*
X49496Y-33278D01*
X49610Y-33278D01*
X49668Y-33306D01*
X49725Y-33364D01*
X49753Y-33478D01*
X49753Y-33678D01*
X49725Y-33792D01*
X49668Y-33849D01*
X49610Y-33878D01*
X49496Y-33878D01*
X50268Y-33478D02*
X50268Y-33878D01*
X50125Y-33249D02*
X49982Y-33678D01*
X50354Y-33678D01*
G54D14*
X56153Y-33457D02*
X56153Y-33057D01*
X56572Y-33457D02*
X56438Y-33266D01*
X56343Y-33457D02*
X56343Y-33057D01*
X56496Y-33057D01*
X56534Y-33076D01*
X56553Y-33095D01*
X56572Y-33133D01*
X56572Y-33190D01*
X56553Y-33228D01*
X56534Y-33247D01*
X56496Y-33266D01*
X56343Y-33266D01*
X56724Y-33438D02*
X56781Y-33457D01*
X56877Y-33457D01*
X56915Y-33438D01*
X56934Y-33419D01*
X56953Y-33381D01*
X56953Y-33343D01*
X56934Y-33305D01*
X56915Y-33285D01*
X56877Y-33266D01*
X56800Y-33247D01*
X56762Y-33228D01*
X56743Y-33209D01*
X56724Y-33171D01*
X56724Y-33133D01*
X56743Y-33095D01*
X56762Y-33076D01*
X56800Y-33057D01*
X56896Y-33057D01*
X56953Y-33076D01*
X57105Y-33095D02*
X57124Y-33076D01*
X57162Y-33057D01*
X57258Y-33057D01*
X57296Y-33076D01*
X57315Y-33095D01*
X57334Y-33133D01*
X57334Y-33171D01*
X57315Y-33228D01*
X57086Y-33457D01*
X57334Y-33457D01*
X57467Y-33057D02*
X57715Y-33057D01*
X57581Y-33209D01*
X57639Y-33209D01*
X57677Y-33228D01*
X57696Y-33247D01*
X57715Y-33285D01*
X57715Y-33381D01*
X57696Y-33419D01*
X57677Y-33438D01*
X57639Y-33457D01*
X57524Y-33457D01*
X57486Y-33438D01*
X57467Y-33419D01*
X57962Y-33057D02*
X58001Y-33057D01*
X58039Y-33076D01*
X58058Y-33095D01*
X58077Y-33133D01*
X58096Y-33209D01*
X58096Y-33305D01*
X58077Y-33381D01*
X58058Y-33419D01*
X58039Y-33438D01*
X58001Y-33457D01*
X57962Y-33457D01*
X57924Y-33438D01*
X57905Y-33419D01*
X57886Y-33381D01*
X57867Y-33305D01*
X57867Y-33209D01*
X57886Y-33133D01*
X57905Y-33095D01*
X57924Y-33076D01*
X57962Y-33057D01*
X58477Y-33457D02*
X58248Y-33457D01*
X58362Y-33457D02*
X58362Y-33057D01*
X58324Y-33114D01*
X58286Y-33152D01*
X58248Y-33171D01*
X58629Y-33438D02*
X58686Y-33457D01*
X58782Y-33457D01*
X58820Y-33438D01*
X58839Y-33419D01*
X58858Y-33381D01*
X58858Y-33343D01*
X58839Y-33305D01*
X58820Y-33285D01*
X58782Y-33266D01*
X58705Y-33247D01*
X58667Y-33228D01*
X58648Y-33209D01*
X58629Y-33171D01*
X58629Y-33133D01*
X58648Y-33095D01*
X58667Y-33076D01*
X58705Y-33057D01*
X58801Y-33057D01*
X58858Y-33076D01*
G54D15*
X50373Y-43044D02*
X50373Y-43330D01*
X49773Y-43330D01*
X49830Y-42873D02*
X49801Y-42844D01*
X49773Y-42787D01*
X49773Y-42644D01*
X49801Y-42587D01*
X49830Y-42558D01*
X49887Y-42530D01*
X49944Y-42530D01*
X50030Y-42558D01*
X50373Y-42901D01*
X50373Y-42530D01*
X47798Y-26910D02*
X47798Y-27196D01*
X47198Y-27196D01*
X47798Y-26396D02*
X47798Y-26739D01*
X47798Y-26567D02*
X47198Y-26567D01*
X47284Y-26624D01*
X47341Y-26682D01*
X47369Y-26739D01*
G54D14*
X53808Y-27262D02*
X53794Y-27276D01*
X53751Y-27290D01*
X53722Y-27290D01*
X53679Y-27276D01*
X53651Y-27248D01*
X53636Y-27219D01*
X53622Y-27162D01*
X53622Y-27119D01*
X53636Y-27062D01*
X53651Y-27033D01*
X53679Y-27005D01*
X53722Y-26990D01*
X53751Y-26990D01*
X53794Y-27005D01*
X53808Y-27019D01*
X53922Y-27019D02*
X53936Y-27005D01*
X53965Y-26990D01*
X54036Y-26990D01*
X54065Y-27005D01*
X54079Y-27019D01*
X54094Y-27048D01*
X54094Y-27076D01*
X54079Y-27119D01*
X53908Y-27290D01*
X54094Y-27290D01*
%LPC*%
G54D18*
X55595Y-27208D03*
X55595Y-26208D03*
X55595Y-25208D03*
X57775Y-27208D03*
X57775Y-26208D03*
X57775Y-25208D03*
G54D19*
X43386Y-40536D03*
X43386Y-31874D03*
G54D20*
X58299Y-43260D03*
X40783Y-26575D03*
G54D21*
X58036Y-28210D03*
X57536Y-28210D03*
X57036Y-28210D03*
X56536Y-28210D03*
X56036Y-28210D03*
X55536Y-28210D03*
X55036Y-28210D03*
X55036Y-30260D03*
X55536Y-30260D03*
X56036Y-30260D03*
X56536Y-30260D03*
X57036Y-30260D03*
X57536Y-30260D03*
X58036Y-30260D03*
G54D22*
X55205Y-32270D03*
X53393Y-32270D03*
G54D23*
X54299Y-34730D03*
G54D22*
X48968Y-32273D03*
X50780Y-32273D03*
G54D23*
X49874Y-29813D03*
G54D22*
X55004Y-39116D03*
X53192Y-39116D03*
G54D23*
X54098Y-41576D03*
G54D22*
X48933Y-38155D03*
X50745Y-38155D03*
G54D23*
X49839Y-35695D03*
G54D24*
X58289Y-34506D03*
X57789Y-34506D03*
X57289Y-34506D03*
X56789Y-34506D03*
X56789Y-32006D03*
X57289Y-32006D03*
X57789Y-32006D03*
X58289Y-32006D03*
G54D25*
X47645Y-42945D03*
X51615Y-42945D03*
X50040Y-26811D03*
X46070Y-26811D03*
G54D26*
X54508Y-27169D03*
X53208Y-27169D03*
M02*
