G04 (created by PCBNEW-RS274X (2012-01-19 BZR 3256)-stable) date 2/17/2013 5:40:49 PM*
G01*
G70*
G90*
%MOIN*%
G04 Gerber Fmt 3.4, Leading zero omitted, Abs format*
%FSLAX34Y34*%
G04 APERTURE LIST*
%ADD10C,0.006000*%
%ADD11C,0.015000*%
%ADD12R,0.119000X0.038000*%
%ADD13R,0.669300X0.629900*%
%ADD14C,0.160000*%
%ADD15R,0.024000X0.086900*%
%ADD16R,0.063000X0.126000*%
%ADD17R,0.255900X0.275600*%
%ADD18R,0.020000X0.045000*%
%ADD19R,0.110000X0.209000*%
%ADD20R,0.060000X0.080000*%
%ADD21C,0.035000*%
%ADD22C,0.008000*%
%ADD23C,0.047200*%
%ADD24C,0.019700*%
%ADD25C,0.015700*%
G04 APERTURE END LIST*
G54D10*
G54D11*
X39724Y-24642D02*
X39756Y-24642D01*
X39724Y-44311D02*
X39724Y-24642D01*
X59358Y-44311D02*
X39724Y-44311D01*
X59358Y-24642D02*
X59358Y-44311D01*
X39724Y-24642D02*
X59358Y-24642D01*
G54D12*
X55595Y-27208D03*
X55595Y-26208D03*
X55595Y-25208D03*
X57775Y-27208D03*
X57775Y-26208D03*
X57775Y-25208D03*
G54D13*
X43386Y-40536D03*
X43386Y-31874D03*
G54D14*
X58299Y-43260D03*
X40783Y-26575D03*
G54D15*
X58036Y-28210D03*
X57536Y-28210D03*
X57036Y-28210D03*
X56536Y-28210D03*
X56036Y-28210D03*
X55536Y-28210D03*
X55036Y-28210D03*
X55036Y-30260D03*
X55536Y-30260D03*
X56036Y-30260D03*
X56536Y-30260D03*
X57036Y-30260D03*
X57536Y-30260D03*
X58036Y-30260D03*
G54D16*
X55205Y-32270D03*
X53393Y-32270D03*
G54D17*
X54299Y-34730D03*
G54D16*
X48968Y-32273D03*
X50780Y-32273D03*
G54D17*
X49874Y-29813D03*
G54D16*
X55004Y-39116D03*
X53192Y-39116D03*
G54D17*
X54098Y-41576D03*
G54D16*
X48933Y-38155D03*
X50745Y-38155D03*
G54D17*
X49839Y-35695D03*
G54D18*
X58289Y-34506D03*
X57789Y-34506D03*
X57289Y-34506D03*
X56789Y-34506D03*
X56789Y-32006D03*
X57289Y-32006D03*
X57789Y-32006D03*
X58289Y-32006D03*
G54D19*
X47645Y-42945D03*
X51615Y-42945D03*
X50040Y-26811D03*
X46070Y-26811D03*
G54D20*
X54508Y-27169D03*
X53208Y-27169D03*
G54D21*
X56681Y-25630D03*
X58488Y-28020D03*
X59039Y-28803D03*
X40339Y-28646D03*
X46673Y-37220D03*
X51728Y-35953D03*
X51642Y-33142D03*
X49850Y-33882D03*
X47654Y-32031D03*
X52571Y-35811D03*
X52571Y-33701D03*
X52409Y-37610D03*
X49551Y-37740D03*
X57480Y-42181D03*
X58980Y-41327D03*
G54D22*
X55866Y-27208D02*
X56354Y-26720D01*
X55595Y-27208D02*
X54547Y-27208D01*
X58488Y-28020D02*
X58298Y-28210D01*
X58298Y-28210D02*
X58036Y-28210D01*
X55595Y-27208D02*
X55866Y-27208D01*
X56354Y-26720D02*
X56354Y-25957D01*
X54547Y-27208D02*
X54508Y-27169D01*
X56354Y-25957D02*
X56681Y-25630D01*
X59039Y-31256D02*
X59039Y-28803D01*
X59039Y-31256D02*
X58289Y-32006D01*
X56604Y-32006D02*
X56789Y-32006D01*
X54493Y-31335D02*
X55933Y-31335D01*
X55933Y-31335D02*
X56604Y-32006D01*
X54312Y-25208D02*
X55595Y-25208D01*
X56789Y-32442D02*
X56789Y-32006D01*
X58036Y-30260D02*
X58036Y-32473D01*
X58036Y-32473D02*
X57811Y-32698D01*
X57811Y-32698D02*
X57045Y-32698D01*
X57045Y-32698D02*
X56789Y-32442D01*
X53208Y-27169D02*
X53208Y-30050D01*
X53208Y-30050D02*
X54493Y-31335D01*
X53208Y-27169D02*
X53208Y-26312D01*
X53208Y-26312D02*
X54312Y-25208D01*
G54D23*
X50745Y-42075D02*
X51615Y-42945D01*
X50745Y-38155D02*
X50745Y-42075D01*
X51615Y-42945D02*
X52729Y-42945D01*
X52729Y-42945D02*
X54098Y-41576D01*
G54D24*
X45795Y-42945D02*
X43386Y-40536D01*
G54D22*
X43386Y-40507D02*
X43386Y-40536D01*
G54D24*
X47645Y-42945D02*
X45795Y-42945D01*
X43386Y-31874D02*
X43386Y-29495D01*
G54D22*
X46673Y-37220D02*
X43386Y-40507D01*
G54D24*
X43386Y-29495D02*
X46070Y-26811D01*
G54D22*
X40339Y-28646D02*
X43386Y-31693D01*
X43386Y-31874D02*
X43386Y-31693D01*
G54D23*
X51642Y-33135D02*
X51642Y-33142D01*
X53192Y-39116D02*
X53192Y-38591D01*
X52706Y-39116D02*
X53192Y-39116D01*
X54252Y-37531D02*
X56598Y-37531D01*
X53192Y-38591D02*
X53372Y-38411D01*
X51728Y-38138D02*
X52706Y-39116D01*
X57654Y-38587D02*
X58299Y-39232D01*
X58299Y-39232D02*
X58299Y-43260D01*
X51728Y-35953D02*
X51728Y-38138D01*
X50780Y-32273D02*
X51642Y-33135D01*
X56598Y-37531D02*
X57654Y-38587D01*
G54D25*
X58289Y-37952D02*
X57654Y-38587D01*
G54D22*
X58289Y-34506D02*
X58289Y-37952D01*
G54D23*
X53372Y-38411D02*
X54252Y-37531D01*
G54D22*
X55410Y-28870D02*
X55536Y-28744D01*
X57289Y-31821D02*
X56621Y-31153D01*
X56621Y-31153D02*
X54569Y-31153D01*
X54098Y-29414D02*
X54642Y-28870D01*
X55536Y-28744D02*
X55536Y-28210D01*
X57289Y-32006D02*
X57289Y-31821D01*
X54642Y-28870D02*
X55410Y-28870D01*
X54569Y-31153D02*
X54098Y-30682D01*
X54098Y-30682D02*
X54098Y-29414D01*
X55877Y-29059D02*
X54711Y-29059D01*
X54280Y-29490D02*
X54280Y-30606D01*
X54711Y-29059D02*
X54280Y-29490D01*
X56036Y-28900D02*
X55877Y-29059D01*
X54280Y-30606D02*
X54645Y-30971D01*
X56036Y-28210D02*
X56036Y-28900D01*
X57789Y-31600D02*
X57789Y-32006D01*
X57160Y-30971D02*
X57789Y-31600D01*
X54645Y-30971D02*
X57160Y-30971D01*
G54D23*
X40783Y-26575D02*
X41362Y-26575D01*
X47233Y-25122D02*
X47587Y-25476D01*
X50436Y-35098D02*
X49839Y-35695D01*
X49850Y-33882D02*
X49839Y-33893D01*
X47587Y-31964D02*
X47654Y-32031D01*
X41362Y-26575D02*
X42815Y-25122D01*
X53931Y-35098D02*
X50436Y-35098D01*
X49839Y-33893D02*
X49839Y-35695D01*
X54299Y-34730D02*
X53931Y-35098D01*
X42815Y-25122D02*
X47233Y-25122D01*
X47587Y-25476D02*
X47587Y-31964D01*
G54D22*
X59098Y-26905D02*
X58401Y-26208D01*
X58401Y-26208D02*
X57775Y-26208D01*
X55536Y-30260D02*
X55536Y-29743D01*
X57920Y-29461D02*
X59098Y-28283D01*
X59098Y-28283D02*
X59098Y-26905D01*
X55536Y-29743D02*
X55818Y-29461D01*
X55818Y-29461D02*
X57920Y-29461D01*
X54296Y-28210D02*
X55036Y-28210D01*
X53902Y-26507D02*
X53902Y-27816D01*
X53902Y-27816D02*
X54296Y-28210D01*
X54201Y-26208D02*
X53902Y-26507D01*
X55595Y-26208D02*
X54201Y-26208D01*
X56536Y-26447D02*
X57775Y-25208D01*
X56536Y-28210D02*
X56536Y-26447D01*
X55571Y-29279D02*
X57786Y-29279D01*
X57786Y-29279D02*
X58916Y-28149D01*
X58677Y-27208D02*
X57775Y-27208D01*
X55036Y-30260D02*
X55036Y-29814D01*
X58916Y-27447D02*
X58677Y-27208D01*
X55036Y-29814D02*
X55571Y-29279D01*
X58916Y-28149D02*
X58916Y-27447D01*
G54D23*
X51903Y-29813D02*
X49874Y-29813D01*
X50040Y-26811D02*
X50040Y-29647D01*
G54D25*
X52571Y-33701D02*
X52571Y-33092D01*
X52879Y-36469D02*
X52571Y-36161D01*
X52571Y-33092D02*
X53393Y-32270D01*
X57282Y-35151D02*
X55964Y-36469D01*
X52571Y-36161D02*
X52571Y-35811D01*
X55964Y-36469D02*
X52879Y-36469D01*
G54D23*
X53393Y-31303D02*
X51903Y-29813D01*
X53393Y-32270D02*
X53393Y-31303D01*
G54D22*
X57289Y-35144D02*
X57289Y-34506D01*
X57282Y-35151D02*
X57289Y-35144D01*
G54D23*
X50040Y-29647D02*
X49874Y-29813D01*
G54D25*
X47835Y-37788D02*
X48202Y-38155D01*
X47835Y-33465D02*
X47835Y-37788D01*
G54D22*
X49136Y-38155D02*
X49551Y-37740D01*
G54D25*
X48202Y-38155D02*
X48933Y-38155D01*
G54D22*
X49136Y-38155D02*
X48933Y-38155D01*
G54D25*
X48502Y-32273D02*
X47835Y-32940D01*
G54D22*
X57789Y-34506D02*
X57789Y-35168D01*
X55954Y-37003D02*
X57789Y-35168D01*
G54D25*
X48968Y-32273D02*
X48502Y-32273D01*
G54D22*
X52409Y-37610D02*
X53016Y-37003D01*
X53016Y-37003D02*
X55954Y-37003D01*
G54D25*
X47835Y-32940D02*
X47835Y-33465D01*
G54D22*
X57480Y-41592D02*
X55004Y-39116D01*
X58980Y-33063D02*
X58980Y-41327D01*
X57480Y-42181D02*
X57480Y-41592D01*
X56357Y-32880D02*
X58797Y-32880D01*
X58797Y-32880D02*
X58980Y-33063D01*
X55815Y-32880D02*
X55205Y-32270D01*
X56357Y-32880D02*
X55815Y-32880D01*
X56461Y-32984D02*
X56357Y-32880D01*
X56784Y-33307D02*
X56789Y-33312D01*
X56789Y-34506D02*
X56789Y-33312D01*
X56784Y-33307D02*
X56461Y-32984D01*
M02*
